<?xml version="1.0" encoding="UTF-8" standalone="no"?>
<svg
   width="8.62333in"
   height="5.36667in"
   viewBox="0 0 2587 1610"
   version="1.1"
   id="svg1"
   sodipodi:docname="Bubble_svg_Korrektur.svg"
   inkscape:version="1.3 (0e150ed6c4, 2023-07-21)"
   xmlns:inkscape="http://www.inkscape.org/namespaces/inkscape"
   xmlns:sodipodi="http://sodipodi.sourceforge.net/DTD/sodipodi-0.dtd"
   xmlns="http://www.w3.org/2000/svg"
   xmlns:svg="http://www.w3.org/2000/svg">
  <defs
     id="defs1" />
  <sodipodi:namedview
     id="namedview1"
     pagecolor="#505050"
     bordercolor="#eeeeee"
     borderopacity="1"
     inkscape:showpageshadow="0"
     inkscape:pageopacity="0"
     inkscape:pagecheckerboard="0"
     inkscape:deskcolor="#505050"
     inkscape:document-units="in"
     inkscape:zoom="1"
     inkscape:cx="569.5"
     inkscape:cy="157.5"
     inkscape:window-width="1920"
     inkscape:window-height="1017"
     inkscape:window-x="-8"
     inkscape:window-y="-8"
     inkscape:window-maximized="1"
     inkscape:current-layer="svg1" />
  <path
     id="Auswahl #5"
     fill="none"
     stroke="#000000"
     stroke-width="1"
     d="m 1860,430 c 0,0 5.72,-49 5.72,-49 0,0 0.56,-9 0.56,-9 0,0 3.66,-24 3.66,-24 0,0 0,-8 0,-8 0,0 4.78,-35 4.78,-35 0,0 5,-40 5,-40 0.93,-7.84 0.69,-13.29 4.18,-21 7.21,-15.9 20.61,-18.18 36.1,-18 0,0 28,3.87 28,3.87 0,0 22,2.56 22,2.56 0,0 47,7.28 47,7.28 0,0 38,4.87 38,4.87 6.84,1.06 14.76,1.67 21,4.8 6.49,3.25 12.81,10.43 18,15.62 0,0 28,28 28,28 0,0 24,24 24,24 5.18,5.18 11.02,10.22 14.1,17 3.16,6.97 2.98,12.6 2.9,20 0,0 -3.58,25 -3.58,25 0,0 -8.42,48 -8.42,48 0,0 -8,48 -8,48 0,0 34,6.55 34,6.55 0,0 36,6.65 36,6.65 11.9,2.38 30.04,5.09 40,11.27 5.63,3.49 13.07,11.6 18,16.53 0,0 29,29 29,29 0,0 19,19 19,19 13.35,13.35 19.23,17.22 19,37 -0.1,7.97 -5.99,29.04 -8.12,38 0,0 -15.51,66 -15.51,66 -2.6,10.47 -6.4,33.01 -12.16,41 -7.94,11 -18.8,12.14 -31.21,12 -8.02,-0.1 -17.05,-2.8 -25,-4.4 0,0 -41,-8.18 -41,-8.18 0,0 -24,-4.42 -24,-4.42 0,0 -78,-16 -78,-16 0,0 -6.25,39 -6.25,39 0,0 -3.33,16 -3.33,16 0,0 -4.84,31 -4.84,31 0,0 -6.58,47 -6.58,47 0,0 55,11.12 55,11.12 7.91,1.82 19.17,3.24 26,7.36 5.47,3.3 14.12,12.64 19,17.52 0,0 31,31 31,31 0,0 18,18 18,18 12.59,12.59 17.21,16.58 17,35 -0.09,7.43 -4.52,24.92 -6.35,33 0,0 -15.23,65 -15.23,65 0,0 -6,27 -6,27 -1.49,6.78 -2.64,14.11 -6.53,20 -7.79,11.81 -19.01,13.15 -31.89,13 0,0 -51,-9.6 -51,-9.6 -48.5,-9.72 -85.35,-17.01 -127,-46.12 -29.02,-20.28 -61.23,-55.51 -87,-81.28 -4.47,6.11 -15.73,15.04 -22,19.88 -16.24,12.55 -32.63,23.18 -51,32.37 -28.02,14.01 -71.57,27.7 -103,27.75 0,0 -41,0 -41,0 -14.14,-0.17 -34.15,-4.16 -48,-7.63 -48.03,-12.01 -90.98,-36.35 -126,-71.37 0,0 -1.87,15 -1.87,15 -4.31,30.98 -7.28,39.97 -18.32,69 -28.03,73.66 -78.18,135.34 -150.81,168.69 -33.85,15.54 -62.68,19 -99,22.48 0,0 -23,1.92 -23,1.92 0,0 -10,0.91 -10,0.91 -8.57,0.1 -17.96,0.81 -26,-2.47 -9.31,-3.81 -26.13,-22.66 -34,-30.53 0,0 -35,-35 -35,-35 -7.02,-7.02 -14.62,-13.15 -17.56,-23 0,0 -3.61,-31 -3.61,-31 0,0 -6.66,-67 -6.66,-67 0,0 -2.09,-23 -2.09,-23 -0.24,-3.02 -0.75,-11.47 -2.1,-13.82 -1.67,-2.89 -6.14,-4.92 -8.98,-6.63 -5.89,-3.53 -11.75,-7.11 -17,-11.55 -0.42,19.16 -6.95,44.71 -17.06,61 -4.93,7.94 -8.43,11.49 -14.94,18 -28.97,28.97 -67.13,37.02 -106,24.98 -20.7,-6.42 -34.92,-17.9 -50,-32.98 -0.54,3.82 -1.3,7.46 -2.9,11 -7.35,16.19 -26.7,18 -42.1,21.42 0,0 -33,8.21 -33,8.21 0,0 -41,10.02 -41,10.02 -7.17,1.65 -15.75,4.26 -23,4.35 -7.08,0.08 -12.25,0.28 -19,-2.47 -9.05,-3.7 -23.52,-20.05 -31,-27.53 0,0 -34,-34 -34,-34 -5.02,-5.02 -15.16,-14.43 -18.52,-20 -3.39,-5.62 -7.12,-20.23 -8.48,-27 0,0 -51,14.58 -51,14.58 0,0 -93,26.84 -93,26.84 0,0 -34,9.92 -34,9.92 -8.22,2.57 -19.6,6.56 -28,6.66 -7.94,0.09 -14.54,0.48 -22,-2.9 -7.53,-3.42 -15.99,-13.09 -22,-19.1 0,0 -37,-37 -37,-37 -8.91,-8.91 -23.91,-22.09 -29.11,-33 0,0 -13.2,-30 -13.2,-30 0,0 -40,-88 -40,-88 0,0 -97,-214 -97,-214 0,0 -43.47,-96 -43.47,-96 -6.2,-13.22 -20.06,-39.31 -20.22,-53 -0.08,-7.04 0.12,-12.51 3.38,-19 1.65,-3.3 3.86,-6.25 6.66,-8.67 4.93,-4.28 26.72,-14.46 33.96,-18.08 0,0 53,-27 53,-27 0,0 81,-40.01 81,-40.01 18.82,-9.56 42.32,-23.14 62,-6.91 0,0 50,49.67 50,49.67 7.55,7.55 24.01,22.55 28.69,31 5.81,10.48 7.8,22.48 10.68,34 0,0 14,58 14,58 0,0 35.26,144 35.26,144 0,0 14.37,58 14.37,58 0,0 41,-14.69 41,-14.69 0,0 15,-5.31 15,-5.31 0,0 -20.42,-70 -20.42,-70 0,0 -38.3,-132 -38.3,-132 0,0 -20.7,-72 -20.7,-72 -2.84,-10.21 -9.46,-29.31 -9.58,-39 -0.15,-13.43 2.97,-25.09 16,-31.62 4.61,-2.31 22.96,-6.74 29,-8.25 0,0 53,-13.5 53,-13.5 0,0 49,-12.5 49,-12.5 9.32,-2.33 21.6,-6.02 31,-6.13 7.4,-0.08 13.03,-0.26 20,2.9 7.15,3.24 13.45,10.55 19,16.1 0,0 28,28 28,28 0,0 34.47,35 34.47,35 2.13,2.76 3.75,5.88 5.27,9 3.84,7.89 5.46,18.31 7.26,27 0,0 7.42,33 7.42,33 0,0 27.16,122 27.16,122 0,0 8,36 8,36 0,0 4.07,16.9 4.07,16.9 1.85,3.7 6.13,5.15 9.35,7.63 0,0 15,14.47 15,14.47 0,0 60,60 60,60 0,0 -9.58,-45 -9.58,-45 -3.56,-22.94 -4.46,-45.82 -4.42,-69 0,0 1.04,-12 1.04,-12 0,0 0,-9 0,-9 1.54,-14.83 3.99,-26.62 7.59,-41 19.18,-76.72 68.4,-143.77 138.37,-181.69 33.32,-18.07 70.35,-29.96 108,-34.46 0,0 21,-1.85 21,-1.85 0,0 25,0 25,0 0,0 10,0.91 10,0.91 35.74,2.61 70.72,13.62 103,28.87 11.14,5.26 21.77,11.73 32,18.55 2.29,1.53 12.68,8.95 14.57,9.07 2.57,0.17 5.19,-3.64 6.68,-5.4 0,0 13.33,-16 13.33,-16 13.83,-16.87 22.5,-25.96 45.42,-26 11.14,-0.02 32.35,-1.47 42,2.47 7.3,2.99 12.55,9.08 18,14.53 0,0 23,23 23,23 3.91,-4.21 9.22,-7.16 14,-10.33 11.18,-7.42 27.59,-15.6 40,-20.95 59.46,-25.65 130.09,-30.37 193,-16.3 13.13,2.94 39.51,11.66 52,17.01 0,0 16,7.35 16,7.35 2.38,1.24 6.58,3.99 9,4.37 2.86,0.44 8.52,-2.06 12,-2.92 3.66,-0.43 11.02,-0.27 15,0 z m 188,-144 c 0,0 -25,-3.72 -25,-3.72 0,0 -31,-3.55 -31,-3.55 0,0 -33,-5.44 -33,-5.44 0,0 -10,-0.58 -10,-0.58 0,0 -28,-3.71 -28,-3.71 0,0 -11.28,94 -11.28,94 0,0 -6.56,49 -6.56,49 0,0 -4.01,35 -4.01,35 -0.95,7.94 -1.61,15.99 -8.24,21.47 -7.09,5.86 -15.53,4.69 -23.91,3.68 0,0 -38,-4.15 -38,-4.15 -1.96,6.88 0.57,13.28 -6.1,18.35 -1.65,1.26 -3.8,2.22 -5.9,2.23 -4.97,0.01 -12.75,-7.03 -17,-9.91 -13.76,-9.32 -22.36,-13.34 -37,-20.41 -16.38,-7.91 -51.87,-18.28 -70,-20.96 0,0 -26,-2.39 -26,-2.39 0,0 -10,-0.91 -10,-0.91 -48.09,-0.56 -97.51,10.43 -139,35.45 -20.03,12.08 -28.23,19.61 -44.7,35.63 -11.92,11.6 -21.37,25.19 -30.63,38.92 -3.82,5.66 -9.47,17.01 -14.67,20.26 -2.45,1.53 -5.25,2.02 -8,1 -8.43,-3.12 -8.99,-12.68 -9,-20.26 0,0 0,-96 0,-96 0,0 -10,0 -10,0 -15.35,0.02 -16.6,6.8 -25.77,17.91 0,0 -22.63,27.09 -22.63,27.09 -4.35,5.48 -9.98,17.57 -17.6,17.58 -5.31,0.01 -12.81,-7.27 -17,-10.45 -12.27,-9.32 -24.78,-18 -38,-25.93 -30.72,-18.43 -65.53,-29.86 -101,-34.48 0,0 -17,-1.72 -17,-1.72 -29.9,-0.35 -61.96,4.53 -90,15.19 -36.67,13.94 -67.62,32.23 -94.96,60.81 -44.13,46.14 -68.14,110.49 -68.04,174 0,0 3.72,37 3.72,37 0,0 1.71,16 1.71,16 3.38,23.32 12.21,54.56 21.88,76 0,0 10.91,21 10.91,21 10.73,20.35 23.32,40.05 38.96,57.04 30.46,33.09 77.75,60.82 121.82,70.54 0,0 30,3.59 30,3.59 0,0 21,1.83 21,1.83 0,0 14,0 14,0 18.52,-0.03 57.07,-6.75 74,-13.87 5.78,-2.44 22.36,-11.16 26.99,-14.81 0,0 11.01,-10.89 11.01,-10.89 7.94,-5.82 17.5,1.06 16.96,13.57 -0.25,5.85 -5.47,20.06 -7.77,26 -3.22,8.32 -5.25,11.49 -9.79,19 -18.54,30.67 -46.26,48.85 -81.4,54.72 0,0 -48,4.86 -48,4.86 -3.46,0.45 -13.09,-0.24 -15.15,2.16 -1.43,1.96 -0.41,5.97 0,8.26 0,0 1.87,21 1.87,21 0,0 6.11,62 6.11,62 0,0 2.17,21 2.17,21 0,0 32,-3 32,-3 0,0 8,0 8,0 26.73,-2.72 56.92,-9.23 81,-21.27 58.02,-29.01 97.66,-78.26 121.45,-137.73 12.99,-32.49 17.2,-49.07 19.64,-84 0,0 0.91,-10 0.91,-10 0,0 0,-16 0,-16 0,0 1,-16 1,-16 0,0 -1,-16 -1,-16 0,0 0,-23 0,-23 0,-2.53 -0.11,-5.59 0.65,-8 2.02,-6.43 8.98,-11.22 15.35,-7.26 3.12,1.94 5.47,5.19 7.38,8.26 16.57,26.63 26.15,44.62 48.7,67.96 5.27,5.44 17.72,15.75 23.92,20.41 34.78,26.14 75.64,42.33 119,46.59 0,0 8,0 8,0 0,0 10,1.04 10,1.04 54.18,0.63 106.34,-17.33 149,-50.79 14.14,-11.09 14.34,-11.55 27,-24.21 2.36,-2.36 8.48,-7.73 8.75,-11 0.23,-2.74 -2.74,-5.94 -4.33,-8 0,0 -11.55,-15 -11.55,-15 0,0 -34.87,-47 -34.87,-47 -4.53,-5.96 -10.43,-15.62 -16,-20 -4.94,6.39 -9.43,13.15 -15.09,18.96 -22.19,22.79 -56.45,41.66 -88.91,42.04 -10.88,0.12 -29.45,-1.15 -40,-3.31 -5.79,-1.19 -10.86,-5.34 -10.79,-11.69 0.05,-3.87 2.3,-6.22 4.66,-8.99 0,0 15.12,-16.01 15.12,-16.01 0,0 19.88,-21.54 19.88,-21.54 0,0 37.09,-38.46 37.09,-38.46 0,0 50.08,-53 50.08,-53 0,0 54.92,-56 54.92,-56 0,0 42.13,-45 42.13,-45 3.29,-3.49 6.6,-6.45 10.91,-8.62 10.76,-5.44 30.11,-5.89 35.26,7.62 0.9,2.36 0.77,6.42 0.74,9 0,0 -4.27,40 -4.27,40 -1.54,10.41 -2.6,12.92 -2.73,24 0,0 -2.71,19 -2.71,19 0,0 -1.57,16 -1.57,16 0,0 -2.79,15 -2.79,15 0,0 0,11 0,11 0,0 -2.51,11 -2.51,11 0,0 -2.42,23 -2.42,23 -0.38,32.53 1.22,57.46 10.72,89 3.22,10.67 7.75,20.95 12.5,31 0,0 6.09,13 6.09,13 20.31,37.01 51.45,69.55 88.69,89.69 24.24,13.11 57.87,19.88 85,25.11 0,0 44,8.2 44,8.2 0,0 17.65,-78 17.65,-78 0,0 6.35,-32 6.35,-32 0,0 -14,-2.74 -14,-2.74 0,0 -54,-11.89 -54,-11.89 -12.16,-3 -24.79,-4.73 -36,-10.69 -37.51,-19.96 -60.49,-60.53 -60,-102.68 0,0 3.87,-28 3.87,-28 0,0 8.52,-55 8.52,-55 0,0 10.48,-64 10.48,-64 1.41,-10.04 1.32,-21.28 11.13,-27.3 5.52,-3.15 12.18,-1.31 18,0 0,0 34,6.85 34,6.85 0,0 68,13.65 68,13.65 0,0 24,4.25 24,4.25 0,0 51,9.55 51,9.55 0,0 7.12,-30 7.12,-30 0,0 9.25,-40 9.25,-40 0,0 8.63,-40 8.63,-40 0,0 -28,-5.34 -28,-5.34 0,0 -34,-6.66 -34,-6.66 0,0 -76,-15 -76,-15 0,0 -22,-4.12 -22,-4.12 0,0 -21,-4.46 -21,-4.46 -12.71,-2.78 -24.62,-3.46 -23.96,-20.42 0,0 6.53,-41 6.53,-41 0,0 13.69,-87 13.69,-87 z m 20,-3 c 0,0 -3.25,16 -3.25,16 0,0 -5.41,33 -5.41,33 0,0 -24.34,146 -24.34,146 0,0 36,7.2 36,7.2 0,0 17,3.01 17,3.01 0,0 22,3.79 22,3.79 0,0 3.73,-26 3.73,-26 0,0 6.7,-43 6.7,-43 0,0 3.12,-14 3.12,-14 0,0 3.2,-20 3.2,-20 0,0 4.33,-27 4.33,-27 0,0 1.28,-13 1.28,-13 0,0 -18.36,-20 -18.36,-20 z M 635,426 c 0,0 -48,11.63 -48,11.63 0,0 -39,10 -39,10 0,0 -45,11.37 -45,11.37 0,0 7.57,28 7.57,28 0,0 16.01,56 16.01,56 0,0 45.13,156 45.13,156 0,0 18.44,64 18.44,64 1.41,5.15 7.1,21.74 6.19,26 -0.79,3.71 -4.16,7.06 -7.34,8.92 0,0 -28,10.42 -28,10.42 0,0 -109,40.08 -109,40.08 0,0 -25,8.92 -25,8.92 -6.82,2.19 -12.09,4.41 -17.35,-2.44 -2.95,-3.85 -4.02,-11.14 -4.91,-15.9 0,0 -5.19,-24 -5.19,-24 0,0 -18.43,-78 -18.43,-78 0,0 -43.24,-175 -43.24,-175 0,0 -16,-67 -16,-67 0,0 -10.88,-44 -10.88,-44 0,0 -49,23.75 -49,23.75 0,0 -77,38.5 -77,38.5 0,0 -42,20.75 -42,20.75 1.38,8.83 14.49,34.27 19.06,44 0,0 31.63,70 31.63,70 0,0 72,159 72,159 0,0 33.53,74 33.53,74 0,0 11.09,25 11.09,25 0,0 14.83,32 14.83,32 0,0 11.62,26 11.62,26 0,0 9.02,20 9.02,20 0.91,1.94 2.95,6.86 4.71,7.89 2.69,1.57 12.35,-1.85 15.51,-2.75 0,0 44,-12.72 44,-12.72 0,0 163,-47.28 163,-47.28 0,0 36,-10.56 36,-10.56 8.11,-2.31 14.41,-4.39 21.98,1.07 8.68,6.24 11.54,24.28 14.68,34.35 0,0 17.19,60 17.19,60 0,0 9.15,32 9.15,32 0,0 57,-13.65 57,-13.65 0,0 38,-9.35 38,-9.35 0,0 -7.35,-36 -7.35,-36 0,0 -12.86,-58 -12.86,-58 0,0 -5.24,-24 -5.24,-24 -0.87,-4.37 -2.34,-9.53 -1.12,-14 1.39,-5.08 5.77,-7.89 10.57,-9.24 0,0 34,-6.76 34,-6.76 2.83,-0.57 11.42,-1.4 12.77,-3.58 1.5,-1.92 0.27,-6.24 0,-8.42 0,0 -3.97,-21 -3.97,-21 0,0 -10.38,-56 -10.38,-56 0,0 -6.42,-32 -6.42,-32 0,0 -46,9.46 -46,9.46 -5.92,1.04 -12.54,4.06 -17.96,0 -6.86,-5.07 -6.88,-16.54 -8.69,-24.46 0,0 -13.77,-62 -13.77,-62 0,0 -36,-162 -36,-162 z m 20,0 c -1.77,4.84 2.35,18.43 3.58,24 0,0 13.76,61 13.76,61 0,0 34.08,154 34.08,154 0,0 12,54 12,54 0,0 5.58,27 5.58,27 0,0 47,-9 47,-9 0,0 -3.58,-20 -3.58,-20 0,0 -8,-36 -8,-36 0,0 -25,-113 -25,-113 0,0 -12.55,-56 -12.55,-56 0,0 -6.23,-24 -6.23,-24 0,0 -20.64,-22 -20.64,-22 z m 775,19 c 0,0 -1,20 -1,20 0,0 0,43 0,43 0,0 1,23 1,23 0,0 19.17,-26 19.17,-26 0,0 19.83,-21 19.83,-21 z m -1100,3 c 0,0 -1,0 -1,0 0,0 1,1 1,1 z m 1,1 c -1.23,3.71 -0.01,6.3 0.79,10 0,0 5.34,22 5.34,22 0,0 18.99,78 18.99,78 0,0 11.25,47 11.25,47 0,0 31.51,128 31.51,128 6.14,25.87 20.96,81.56 24.12,105 6.98,-1.08 26.52,-8.81 34,-11.8 2.52,-1.01 9.36,-3.09 10.34,-5.61 0.65,-1.7 -0.29,-4.85 -0.71,-6.59 0,0 -3.76,-15 -3.76,-15 0,0 -13.5,-56 -13.5,-56 0,0 -38.49,-157 -38.49,-157 0,0 -12,-49 -12,-49 0,0 -7.32,-27 -7.32,-27 -2.5,-4.77 -15.06,-16.5 -19.56,-21 z m 1912,83 c -3.59,5.3 -6.13,21.03 -7.87,28 0,0 -16,68 -16,68 0,0 -5,21 -5,21 -0.94,3.73 -1.63,7.91 -4.41,10.77 -4.47,4.61 -9.27,2.64 -14.72,1.65 0,0 -35,-6.62 -35,-6.62 0,0 -118,-23.38 -118,-23.38 0,0 -31,-6.42 -31,-6.42 0,0 -8.42,55 -8.42,55 0,0 -6.14,33 -6.14,33 0,0 -3.71,26 -3.71,26 0,0 -6.7,47 -6.7,47 0,0 2.17,18 2.17,18 5.34,26.88 21.23,51.17 45.8,64.22 6.96,3.69 11.12,5.67 19,6.78 0,0 -1,-13 -1,-13 0,0 0,-10 0,-10 0,0 6.59,-48 6.59,-48 0,0 4.87,-31 4.87,-31 0,0 2.93,-13 2.93,-13 0,0 10.61,-71 10.61,-71 0,0 45,9 45,9 0,0 47,9 47,9 0,0 38,7.46 38,7.46 0,0 17,3.62 17,3.62 0,0 36,7.12 36,7.12 3.02,0.6 12.49,3.01 14.86,2.45 3.99,-0.96 4.94,-9.14 5.72,-12.65 0,0 9.42,-40 9.42,-40 0,0 13.21,-56 13.21,-56 0.91,-4.21 5.07,-17.72 4.1,-21 -1.15,-3.92 -14.66,-16.35 -18.31,-20 z m -603,17.42 c 13.2,-1.6 37.06,0.22 50,3.45 6.76,1.69 14.93,3.04 16.59,11.13 1.06,5.15 -1.96,12.85 -4.89,17 0,0 -22.45,27 -22.45,27 0,0 -90,110 -90,110 0,0 -32.45,40 -32.45,40 -4.85,6.06 -11.37,14.2 -19.8,14.77 -10.89,0.75 -13.17,-9.79 -15.66,-17.77 -7.13,-22.85 -6.38,-34.89 -6.34,-58 0,0 0.91,-12 0.91,-12 0.99,-14.32 2.75,-28.23 7.12,-42 10.02,-31.64 33.48,-62.47 62.97,-78.11 20.6,-10.93 31.87,-12.31 54,-15.47 z m -495,4.8 c 0,0 19,0 19,0 17.73,-0.19 38.2,5.65 54,13.53 36.48,18.2 64.84,52.06 76.56,91.25 6.21,20.76 5.68,33.86 5.44,55 -0.47,39.64 -25.73,88.62 -56,113.54 -14.68,12.08 -36.28,23.18 -55,27.01 -14.52,2.97 -29.26,2.62 -44,2.45 -11.71,-0.14 -33.37,-8.42 -44,-13.75 -37.69,-18.89 -61.37,-54.49 -72.42,-94.25 -3.39,-12.19 -6.56,-27.37 -6.58,-40 0,0 0,-26 0,-26 0.16,-13.16 5.56,-35.68 10.45,-48 11.85,-29.88 35.79,-55.75 65.55,-68.57 17.92,-7.73 28.64,-8.61 47,-12.21 z M 1686,571 c -5.99,-1.83 -23.59,-3.92 -30,-4 -10.69,-0.12 -28.76,2 -39,5.04 -36.41,10.8 -62.53,37.36 -75.14,72.96 -5.03,14.22 -6.86,29.05 -7.95,44 0,0 -0.91,12 -0.91,12 -0.02,15.08 -0.49,17.71 2.08,33 0.9,5.34 1.85,11.47 4.92,16 0,0 39.58,-49 39.58,-49 0,0 75.88,-93 75.88,-93 0,0 22.34,-27 22.34,-27 z m -418,72 c -2.53,-5.68 -5.89,-10.83 -9.33,-16 -22.3,-33.45 -60.18,-55.19 -100.67,-55 -5.79,0.03 -11.29,1.07 -17,1.87 -27.11,3.78 -49.03,12.66 -68.71,32.41 -20.69,20.76 -32.24,54.64 -32.29,83.72 0,0 0,16 0,16 0.01,7.43 1.36,14.69 2.59,22 7.33,43.61 31.64,84.01 73.41,102 0,0 -5.12,-17 -5.12,-17 -3.36,-12.8 -6.03,-32.83 -5.88,-46 0,0 0.91,-10 0.91,-10 2.76,-39.44 16.93,-73.43 50.09,-97.09 10.47,-7.47 21.73,-12.86 34,-16.63 16.77,-5.15 29.56,-6.48 47,-6.28 11.26,0.14 20.38,3.86 31,6 z m 594,-39 c -14.13,0.31 -14.96,5.85 -24,15 0,0 -16.04,17 -16.04,17 0,0 -23.13,24 -23.13,24 0,0 -19.83,20 -19.83,20 0,0 -10.04,11 -10.04,11 0,0 -21.92,22 -21.92,22 0,0 -53.05,56 -53.05,56 0,0 -38.08,40 -38.08,40 -5.88,6.32 -16.1,16.28 -20.91,23 35.71,6.4 66.57,-4.3 94,-27.44 15.17,-12.8 16.66,-20.82 24.3,-29.55 2.86,-3.26 8,-8.03 12.7,-7.68 4.84,0.37 7.58,5.16 10.15,8.67 4.24,5.79 14.08,20.02 18.85,24 0,0 29,-30 29,-30 0,0 19.08,-21 19.08,-21 0,0 2.53,-11 2.53,-11 0,0 2.22,-13 2.22,-13 0,0 1.42,-15 1.42,-15 0,0 3.18,-25 3.18,-25 0,0 2.57,-18 2.57,-18 0,0 3.57,-30 3.57,-30 z m -636,63.28 c -16.3,2.36 -25.57,2.81 -41,10.53 -26.73,13.36 -40.88,35.6 -46.6,64.19 -1.07,5.35 -2.33,13.62 -2.4,19 -0.18,15.35 0,22.74 3,38 0.7,3.55 1.98,11.78 4.7,14.1 2.31,1.96 13.94,2.86 17.3,2.9 48.08,0.54 82.11,-39.68 93.99,-83 4.56,-16.63 5.05,-29.08 2.26,-46 -0.64,-3.88 -2.05,-12.8 -4.76,-15.49 -4,-3.98 -20.83,-4.75 -26.49,-4.23 z M 796,750 c 0,0 -1,0 -1,0 0,0 1,1 1,1 z m 1,1 c -1.6,4.16 -0.25,7.75 0.6,12 0,0 3.4,18 3.4,18 0,0 13.08,71 13.08,71 0,0 4,22 4,22 0.67,4.07 1.66,7.35 -1.39,10.79 -3.83,4.31 -12.18,5.13 -17.69,6.21 0,0 -40,8 -40,8 0,0 21.42,98 21.42,98 0,0 5.37,25 5.37,25 0.49,3.39 1.81,7.75 0,10.98 -0.87,2.09 -2.77,3.76 -4.79,4.88 0,0 -25,6.49 -25,6.49 0,0 -86,20.65 -86,20.65 4.21,5.87 11.71,12.71 17,18 0,0 30,30 30,30 3.8,3.8 14.33,15.76 19,16.6 2.86,0.51 17.21,-3.09 21,-3.95 0,0 47,-11.52 47,-11.52 0,0 35,-8.55 35,-8.55 2.98,-0.67 11.15,-1.87 12.31,-4.88 0.81,-2.1 -1.01,-10.17 -1.51,-12.7 0,0 -6.38,-30 -6.38,-30 0,0 -5,-22 -5,-22 -0.7,-3.18 -2.02,-10.44 -3.4,-13 0,0 -6.98,-9 -6.98,-9 -5.27,-7.34 -9.68,-14.54 -12.98,-23 -4.68,-12.01 -7.79,-25.07 -8.04,-38 -0.43,-21.88 9.63,-48.4 25.07,-63.91 12.67,-12.74 21.44,-15.27 36.91,-22.09 0,0 -7.2,-37 -7.2,-37 0,0 -3.78,-17 -3.78,-17 0,0 -20.02,-21 -20.02,-21 z m 86,41 c 0,0 -1,0 -1,0 0,0 1,1 1,1 z m 916,13 c 0,0 -1,0 -1,0 0,0 1,1 1,1 z m 1,1 c 0,0 -1,0 -1,0 0,0 1,1 1,1 z m 1,1 c 0,0 -1,0 -1,0 0,0 1,1 1,1 z m 1,1 c -0.08,4.59 6.89,12.2 9.77,16 0,0 28.6,38 28.6,38 4.12,5.49 11.57,13.65 10.09,21 -1.53,7.55 -10.16,15.7 -15.46,21 -15.71,15.71 -26.41,25.3 -45,37.67 -62.78,41.78 -133.17,53.67 -206,34.45 -8.15,-2.16 -27.58,-8.79 -35,-12.38 0,0 -28,-13.74 -28,-13.74 4.56,6.37 18.7,19.7 25,26 20.52,20.52 40.79,36.05 67,48.49 67.32,32.86 148.98,33.26 216,0 21.56,-11.02 47.92,-28.61 65,-45.49 0,0 11.98,-12 11.98,-12 1.67,-1.72 4.62,-4.56 4.97,-7 0.5,-3.5 -4.67,-8.49 -6.82,-11 -6.22,-7.26 -14.96,-18.93 -20.08,-27 -6.15,-9.71 -11.94,-19.54 -16.74,-30 0,0 -9.55,-21 -9.55,-21 0,0 -21.93,-29 -21.93,-29 z m -909,14 c -1.98,5.14 1.23,14.32 2,20 0,0 6,0 6,0 z m 540,38 c -1.69,4.25 -1,11.29 -1.04,16 0,0 0,13 0,13 0,0 -0.96,11 -0.96,11 -0.12,25.54 -2.39,52.4 -9.72,77 0,0 -8.86,24 -8.86,24 -22.33,58.72 -54.49,105.05 -107.42,140.33 -13.21,8.81 -27.13,16.91 -42,22.61 -43.67,16.71 -72.16,14.28 -116,20.06 0,0 44,45 44,45 3.84,3.84 15.88,16.89 20,18.22 4.19,1.73 11.52,0.03 16,0 0,0 43,-3.94 43,-3.94 19.66,-2.56 38.25,-5.46 57,-12.33 54.01,-19.8 98.22,-61 127.4,-109.95 11.73,-19.68 29.21,-59.92 34.37,-82 7.96,-34.15 8.3,-63.36 8.23,-98 0,-2.02 0.12,-5.11 -0.6,-6.96 -1.73,-4.5 -16.06,-14.94 -20.36,-19.13 0,0 -7.13,-7.91 -7.13,-7.91 -16.61,-17.86 -22.78,-26.9 -35.91,-47 z m -553,23.3 c -6.54,1.24 -17.36,5.31 -23,8.77 -57.16,35.07 -31.24,137.15 37,137.93 39.83,0.45 61.57,-34.56 62,-71 0.5,-43.3 -30.62,-80.21 -76,-75.7 z M 2153,908 c -2.6,5.06 -6.09,24.18 -7.65,31 0,0 -14.35,62 -14.35,62 0,0 -5.58,24 -5.58,24 -1,4.53 -1.25,9.35 -4.65,12.85 -4,4.14 -7.76,2.91 -12.77,2.07 0,0 -29,-5.58 -29,-5.58 -25.01,-5.31 -50.63,-9.06 -75,-17.01 0,0 -24,-9.11 -24,-9.11 -5.72,-2.71 -10.89,-6.47 -17,-8.22 4.48,6.26 16.95,17.95 23,24 20.93,20.93 40.87,37.24 68,49.69 23.72,10.89 51.45,16.32 77,21.51 0,0 39,7.92 39,7.92 3.26,0.75 14.01,3.48 16.69,2.27 2.93,-1.33 3.87,-9.38 4.52,-12.39 0,0 8.67,-38 8.67,-38 0,0 13.24,-57 13.24,-57 1.06,-4.62 5.34,-20.34 4.1,-24 -1.41,-4.21 -14.39,-16.17 -18.22,-20 z M 967,918 c 0,0 -1,0 -1,0 0,0 1,1 1,1 z m 1,1 c -0.71,3.97 1.62,8.12 2.62,12 1.6,6.23 3.3,14.61 3.38,21 0.21,18.03 -2.07,36.64 -10.27,53 -11.58,23.09 -39.4,42.88 -65.73,43 0,0 -7,0 -7,0 -8.92,-0.11 -17.39,-3.06 -26,-5 4.63,6.46 20.47,21.47 27,28 19.58,19.58 32.12,35.85 61,40.41 3.44,0.54 11.81,1.68 15,1.5 8.57,-0.49 17.03,-2.11 25,-5.36 5.62,-2.3 11.23,-6.02 16,-9.76 27.3,-21.41 34.63,-57.01 28.2,-89.79 -5.23,-26.65 -17.93,-37.73 -36.2,-56 z m -325,94 c 0,0 -15.58,-57 -15.58,-57 0,0 -4.13,-14 -4.13,-14 -0.53,-1.8 -1.25,-4.85 -2.85,-5.96 -2.93,-2.04 -13.8,2.34 -17.44,3.38 0,0 -51,14.86 -51,14.86 0,0 -29,8.14 -29,8.14 0,0 -102,29.49 -102,29.49 0,0 -71,20.09 -71,20.09 4.21,5.87 11.71,12.71 17,18 0,0 29,29 29,29 4.28,4.28 14.76,15.98 20,17.49 4.79,1.38 16.08,-2.26 21,-3.83 0,0 42,-12.37 42,-12.37 0,0 113,-32.71 113,-32.71 z m 877,-65 c 0,0 -1,0 -1,0 0,0 1,1 1,1 z m 1,1 c 0,0 -1,0 -1,0 0,0 1,1 1,1 z m -495,2 c 0,0 -1,0 -1,0 0,0 1,1 1,1 z m 1,1 c 0,0 -1,0 -1,0 0,0 1,1 1,1 z m 1,1 c 1.16,4.4 6.76,8.76 10,12 0,0 27,26.15 27,26.15 14.36,12.64 31.92,25.41 49,34.09 0,0 17,7.95 17,7.95 3.31,1.02 6.66,-0.01 10,0 0,0 27,-2.11 27,-2.11 31.35,-2.5 58.15,-4.64 82.96,-26.52 4.27,-3.77 10.69,-11.83 14.16,-16.56 5.19,-7.08 10.86,-16.41 12.88,-25 0,0 -21,10.14 -21,10.14 -10.75,4.75 -20.58,7.59 -32,10.21 -26.14,5.99 -42.53,6.69 -69,6.65 0,0 -29,-2.72 -29,-2.72 -16.66,-1.98 -22.32,-2.12 -39,-7.3 -15.17,-4.72 -29.89,-10.96 -44,-18.24 z m 934,45 c 0,0 -1,0 -1,0 0,0 1,1 1,1 z m 1,1 c 0,0 -1,0 -1,0 0,0 1,1 1,1 z m -1098,43 c 0,0 -1,0 -1,0 0,0 1,1 1,1 z M 1726,0.14 c 0,0 64,0 64,0 0,0 88,0 88,0 0,0 14,0.86 14,0.86 0,0 17,0 17,0 0,0 12,0.96 12,0.96 0,0 14,0 14,0 0,0 16,1.04 16,1.04 0,0 11,0.91 11,0.91 0,0 41,2.09 41,2.09 0,0 27,2.83 27,2.83 0,0 43,4.44 43,4.44 0,0 44,8.27 44,8.27 0,0 8,0.92 8,0.92 0,0 43,11.28 43,11.28 0,0 12,4.52 12,4.52 0,0 14,3.84 14,3.84 11.09,3.8 42.16,18.86 52,25.24 9.18,5.97 18.88,12.5 27,19.83 0,0 42.5,47.83 42.5,47.83 0,0 14.71,21 14.71,21 0,0 22.12,31 22.12,31 0,0 13.77,22 13.77,22 0,0 6.44,9 6.44,9 0,0 10.77,20 10.77,20 0,0 7.38,12 7.38,12 0,0 8.17,16 8.17,16 0,0 9.83,17 9.83,17 0,0 5.12,11 5.12,11 0,0 9.93,19 9.93,19 0,0 6.15,14 6.15,14 0,0 13.24,28 13.24,28 0,0 4.18,11 4.18,11 0,0 30.25,72 30.25,72 0,0 20.64,61 20.64,61 0,0 6.8,19 6.8,19 0,0 3.54,12 3.54,12 0,0 2.69,7 2.69,7 0,0 2.49,10 2.49,10 0,0 11.85,39 11.85,39 0,0 4.44,18 4.44,18 0,0 6.62,23 6.62,23 0,0 3.27,17 3.27,17 0,0 4.65,17 4.65,17 0,0 3.95,22 3.95,22 0,0 9.05,39 9.05,39 0,0 4.01,21 4.01,21 0,0 1.69,13 1.69,13 0,0 9.03,56 9.03,56 0,0 7.72,60 7.72,60 0,0 3.09,41 3.09,41 0,0 0.91,10 0.91,10 0,0 2,43 2,43 0,0 1,17 1,17 0,0 0,41 0,41 0,0 -1,19 -1,19 0,0 -5.73,50 -5.73,50 0,0 -3.93,25 -3.93,25 0,0 -12.15,42 -12.15,42 -9.61,30.08 -21.54,59.73 -39.38,86 -11.05,16.26 -11.76,16.09 -24.72,30 -25.94,27.84 -39.57,37.42 -72.09,56 0,0 -34,15.6 -34,15.6 -5.32,2.13 -11.75,3.8 -12.76,10.4 -0.95,6.23 3.96,12.9 6.89,18 9.65,16.82 10.8,20.01 23.21,36 0,0 22.04,30 22.04,30 0,0 8.16,9 8.16,9 0,0 18.63,21.91 18.63,21.91 0,0 6.4,6.18 6.4,6.18 0,0 14.48,17.91 14.48,17.91 15.75,17.74 32.91,31.32 32.95,57 0,0 0,5 0,5 -0.05,3.86 -2.13,16.21 -3.16,20 -1.14,4.2 -3.05,8.2 -5.15,12 -3.15,5.69 -5.46,7.81 -10.69,11.57 -12.81,9.21 -21.13,7.6 -36,7.43 0,0 -58,-6 -58,-6 -8.18,-0.1 -20.66,-2.87 -29,-4.25 0,0 -54,-9.29 -54,-9.29 0,0 -8,-0.89 -8,-0.89 0,0 -35,-6.24 -35,-6.24 0,0 -40,-10.57 -40,-10.57 0,0 -14,-2.49 -14,-2.49 0,0 -18,-5.39 -18,-5.39 0,0 -12,-3.43 -12,-3.43 0,0 -8,-3.24 -8,-3.24 0,0 -17,-4.95 -17,-4.95 0,0 -42,-15.57 -42,-15.57 0,0 -31,-13.91 -31,-13.91 0,0 -15,-7.09 -15,-7.09 0,0 -27,-16.5 -27,-16.5 -7.72,-4.8 -22.25,-18.52 -31,-18.08 -4.46,0.22 -14.2,4.04 -19,5.54 0,0 -32,9.2 -32,9.2 0,0 -30,7.49 -30,7.49 0,0 -11,1.87 -11,1.87 0,0 -58,11.36 -58,11.36 0,0 -34,5.15 -34,5.15 0,0 -16,1.43 -16,1.43 0,0 -48,6.01 -48,6.01 0,0 -49,4.93 -49,4.93 0,0 -10,0.91 -10,0.91 0,0 -43,2.91 -43,2.91 0,0 -32,1.09 -32,1.09 0,0 -12,0.91 -12,0.91 0,0 -25,1.09 -25,1.09 0,0 -15,1 -15,1 0,0 -20,1.04 -20,1.04 0,0 -12,0 -12,0 0,0 -10,0.96 -10,0.96 0,0 -15,0 -15,0 0,0 -17,1 -17,1 0,0 -22,0 -22,0 0,0 -16,1 -16,1 0,0 -149,0 -149,0 0,0 -15,-1 -15,-1 0,0 -27,0 -27,0 0,0 -17,-1 -17,-1 0,0 -39,-1 -39,-1 0,0 -12,-0.96 -12,-0.96 0,0 -13,0 -13,0 0,0 -22,-1.04 -22,-1.04 0,0 -14,-1 -14,-1 0,0 -16,-1 -16,-1 0,0 -15,0 -15,0 0,0 -17,-1 -17,-1 0,0 -13,-0.91 -13,-0.91 0,0 -22,-1.26 -22,-1.26 0,0 -16,-1.65 -16,-1.65 0,0 -8,0 -8,0 0,0 -25,-2.01 -25,-2.01 0,0 -40,-3.34 -40,-3.34 0,0 -29,-3.12 -29,-3.12 0,0 -10,-1.54 -10,-1.54 0,0 -29,-3.23 -29,-3.23 0,0 -11,0 -11,0 0,0 -45,-6.66 -45,-6.66 0,0 -36,-4.7 -36,-4.7 0,0 -24,-4.16 -24,-4.16 0,0 -29,-3.7 -29,-3.7 0,0 -46,-8.18 -46,-8.18 0,0 -25,-5.08 -25,-5.08 0,0 -8,-0.76 -8,-0.76 0,0 -15,-3.09 -15,-3.09 0,0 -9,-1.07 -9,-1.07 0,0 -35,-7.88 -35,-7.88 0,0 -23,-4.55 -23,-4.55 0,0 -30,-7.26 -30,-7.26 0,0 -14,-4.11 -14,-4.11 0,0 -36,-8.88 -36,-8.88 0,0 -40,-11.96 -40,-11.96 0,0 -10,-2.05 -10,-2.05 0,0 -46,-14.34 -46,-14.34 0,0 -12,-3.6 -12,-3.6 0,0 -32,-12.38 -32,-12.38 0,0 -18,-5.98 -18,-5.98 0,0 -21,-9.1 -21,-9.1 0,0 -12,-4.37 -12,-4.37 0,0 -10,-4.65 -10,-4.65 0,0 -10,-3.74 -10,-3.74 0,0 -27,-12 -27,-12 0,0 -10,-5.32 -10,-5.32 0,0 -56,-29.92 -56,-29.92 0,0 -29,-16.55 -29,-16.55 0,0 -16,-12 -16,-12 -54.66,-37.69 -98.22,-75.52 -134.54,-131.9 -7.34,-11.4 -15.25,-22.69 -21.06,-35 0,0 -2.73,-7 -2.73,-7 0,0 -9.12,-21 -9.12,-21 -4.72,-11.82 -9.41,-23.67 -12.67,-36 C 2.43,1041 -0.38,1008.02 0,975 c 0,0 0.91,-10 0.91,-10 0,0 6.09,-71 6.09,-71 0,0 2.83,-30 2.83,-30 0,0 3.17,-35 3.17,-35 0,0 0,-9 0,-9 0,0 5.09,-64 5.09,-64 0,0 2.91,-33 2.91,-33 0,0 0,-9 0,-9 0,0 2,-26 2,-26 0,0 0,-14 0,-14 0,0 1,-18 1,-18 0,0 2,-29 2,-29 0,0 3,-47 3,-47 0,0 0.91,-10 0.91,-10 0,0 1.18,-21 1.18,-21 0,0 1.87,-18 1.87,-18 0,0 0,-12 0,-12 0,0 0.95,-10 0.95,-10 0,0 1.26,-19 1.26,-19 0,0 1.66,-12 1.66,-12 0,0 3.17,-28 3.17,-28 0,0 0,-10 0,-10 0,0 3.87,-24 3.87,-24 4.8,-31.93 12.65,-68.27 22.47,-99 0,0 5.96,-16 5.96,-16 7.83,-21.97 17.32,-46.35 29.94,-66 8.39,-13.07 18.27,-25.67 28.93,-36.96 0,0 7.74,-7.13 7.74,-7.13 0,0 12.09,-12.62 12.09,-12.62 12.27,-10.68 26.08,-19.3 40,-27.6 0,0 21,-11.06 21,-11.06 0,0 22,-10.76 22,-10.76 15.76,-6.77 39.16,-13.04 56,-17.24 0,0 16,-4.21 16,-4.21 0,0 17,-3.02 17,-3.02 0,0 69,-11.68 69,-11.68 0,0 25,-2.72 25,-2.72 0,0 34,-2.83 34,-2.83 0,0 22,-1.26 22,-1.26 0,0 49,-2.91 49,-2.91 0,0 22,-1 22,-1 0,0 10,-0.96 10,-0.96 0,0 8,0 8,0 0,0 17,-1.04 17,-1.04 0,0 26,-1.91 26,-1.91 0,0 53,-3.18 53,-3.18 0,0 25,-1.91 25,-1.91 0,0 45,-2.83 45,-2.83 0,0 56,-4.34 56,-4.34 0,0 53,-3.83 53,-3.83 0,0 20,-1.83 20,-1.83 0,0 18,-1.34 18,-1.34 0,0 39,-2.83 39,-2.83 0,0 21,-1.91 21,-1.91 0,0 64,-5.92 64,-5.92 0,0 50,-4.34 50,-4.34 0,0 31,-2.83 31,-2.83 0,0 50,-3.83 50,-3.83 0,0 51,-4.34 51,-4.34 0,0 73,-6.83 73,-6.83 0,0 8,0 8,0 0,0 55,-4 55,-4 0,0 22,-1.91 22,-1.91 0,0 46,-3.18 46,-3.18 0,0 19,-1.82 19,-1.82 0,0 73,-4.09 73,-4.09 0,0 35,-2 35,-2 0,0 10,-1 10,-1 0,0 10,0 10,0 0,0 14,-1 14,-1 0,0 14,-1 14,-1 0,0 21,0 21,0 0,0 16,-1 16,-1 0,0 21,-1 21,-1 0,0 32,-1 32,-1 0,0 17,-1 17,-1 0,0 15,0 15,0 0,0 16,-1 16,-1 z m 6,38.93 c 0,0 -30,0.93 -30,0.93 0,0 -15,1 -15,1 0,0 -16,0 -16,0 0,0 -15,1 -15,1 0,0 -33,1 -33,1 0,0 -22,1 -22,1 0,0 -10,0.96 -10,0.96 0,0 -8,0 -8,0 0,0 -19,1.04 -19,1.04 0,0 -10,0.98 -10,0.98 0,0 -10,0 -10,0 0,0 -8,0.93 -8,0.93 0,0 -42,2.18 -42,2.18 0,0 -22,1.91 -22,1.91 0,0 -9,0 -9,0 0,0 -10,1 -10,1 0,0 -77,4.91 -77,4.91 0,0 -82,6.26 -82,6.26 0,0 -35,3 -35,3 0,0 -21,1.83 -21,1.83 0,0 -98,7 -98,7 0,0 -10,0.91 -10,0.91 0,0 -32,2.92 -32,2.92 0,0 -44,4 -44,4 0,0 -17,1.26 -17,1.26 0,0 -10,0.91 -10,0.91 0,0 -38,2.83 -38,2.83 0,0 -65,6 -65,6 0,0 -51,4.34 -51,4.34 0,0 -52,3.83 -52,3.83 0,0 -10,0.91 -10,0.91 0,0 -23,1.92 -23,1.92 0,0 -31,2.34 -31,2.34 0,0 -89,6.92 -89,6.92 0,0 -52,2.91 -52,2.91 0,0 -20,1 -20,1 0,0 -10,0.91 -10,0.91 0,0 -24,1.09 -24,1.09 0,0 -15,1 -15,1 0,0 -46,2 -46,2 0,0 -10,0.91 -10,0.91 0,0 -40,2.09 -40,2.09 0,0 -48,4.85 -48,4.85 -30.64,3.66 -60.98,7.54 -91,15.04 0,0 -22,6.1 -22,6.1 0,0 -10,2.05 -10,2.05 0,0 -27,9.76 -27,9.76 0,0 -15,5.53 -15,5.53 -22.51,9.71 -46.58,23.8 -65,39.96 -31.3,27.44 -50.22,65.18 -64.09,103.71 0,0 -3.16,8 -3.16,8 0,0 -2.48,10 -2.48,10 0,0 -5.92,23 -5.92,23 0,0 -3.6,13 -3.6,13 0,0 -1.42,8 -1.42,8 0,0 -5.87,28 -5.87,28 0,0 -1.59,16 -1.59,16 0,0 -3.58,21 -3.58,21 0,0 -4.46,41 -4.46,41 0,0 -5.92,66 -5.92,66 0,0 -1.91,26 -1.91,26 0,0 0,14 0,14 0,0 -1.96,23 -1.96,23 0,0 0,8 0,8 0,0 -1.04,13 -1.04,13 0,0 -2,32 -2,32 0,0 -2,31 -2,31 0,0 -1.91,24 -1.91,24 0,0 -2.18,35 -2.18,35 0,0 -3,42 -3,42 0,0 -0.91,10 -0.91,10 0,0 -2.83,43 -2.83,43 0,0 -1.34,19 -1.34,19 0,0 -2.83,31 -2.83,31 0,0 -4.83,53 -4.83,53 0,0 -2.17,44 -2.17,44 0,0 0.91,10 0.91,10 2.03,29.53 7.2,57.03 17.18,85 12.87,36.09 44.6,84.54 71.19,111.83 0,0 18.63,17.45 18.63,17.45 0,0 15.09,14.29 15.09,14.29 0,0 19,14.71 19,14.71 0,0 15,11.68 15,11.68 0,0 15,10.08 15,10.08 0,0 17,11.9 17,11.9 0,0 20,11.51 20,11.51 0,0 17,10.69 17,10.69 0,0 14,7.38 14,7.38 0,0 13,5.89 13,5.89 0,0 8,5.06 8,5.06 0,0 11,4.51 11,4.51 0,0 15,7.71 15,7.71 0,0 30,12.73 30,12.73 0,0 35,14.67 35,14.67 0,0 20,6.86 20,6.86 0,0 12,5.11 12,5.11 0,0 12,3.04 12,3.04 0,0 27,9.9 27,9.9 0,0 16,4.59 16,4.59 0,0 59,17.3 59,17.3 0,0 25,7.23 25,7.23 0,0 18,3.78 18,3.78 0,0 16,4.43 16,4.43 0,0 13,2.17 13,2.17 0,0 13,3.6 13,3.6 0,0 35,8.24 35,8.24 0,0 19,3.17 19,3.17 0,0 74,15.03 74,15.03 0,0 28,3.78 28,3.78 0,0 24,4.54 24,4.54 0,0 34,4.43 34,4.43 0,0 30,4.42 30,4.42 0,0 8,0.58 8,0.58 0,0 10,1.77 10,1.77 0,0 9,0 9,0 0,0 92,11.11 92,11.11 0,0 38,3.83 38,3.83 0,0 9,0 9,0 0,0 30,2.96 30,2.96 0,0 8,0 8,0 0,0 24,2.13 24,2.13 0,0 29,1.91 29,1.91 0,0 11,0.96 11,0.96 0,0 58,3.04 58,3.04 0,0 13,1.04 13,1.04 0,0 14,0 14,0 0,0 12,0.96 12,0.96 0,0 39,1 39,1 0,0 17,1 17,1 0,0 27,0 27,0 0,0 17,1 17,1 0,0 138,0 138,0 0,0 15,-1 15,-1 0,0 22,0 22,0 0,0 15,-1 15,-1 0,0 15,0 15,0 0,0 16,-1 16,-1 0,0 30,-1 30,-1 0,0 10,-0.96 10,-0.96 0,0 9,0 9,0 0,0 16,-1.04 16,-1.04 0,0 11,-1 11,-1 0,0 9,0 9,0 0,0 54,-4.17 54,-4.17 0,0 52,-4.83 52,-4.83 22,-0.25 73.29,-8.06 97,-11.57 0,0 35,-4.7 35,-4.7 23.85,-3.68 47.59,-8.25 71,-14.1 0,0 38,-10.14 38,-10.14 0,0 21,-7.9 21,-7.9 6.41,-2.34 7.67,-2.49 14,-5.9 2.63,-1.41 5.9,-3.85 9,-3.29 3.43,0.62 7.56,5.19 10,7.6 5.01,4.97 10.42,9.19 16,13.5 18.72,14.46 25.71,17.49 46,27.87 0,0 13,7.29 13,7.29 0,0 11,4.2 11,4.2 0,0 26,11.68 26,11.68 0,0 20,6.55 20,6.55 0,0 9,3.69 9,3.69 0,0 16,4.42 16,4.42 0,0 35,9.9 35,9.9 0,0 9,1.66 9,1.66 0,0 23,6.57 23,6.57 0,0 22,4.03 22,4.03 0,0 11,2.98 11,2.98 24.68,5.18 49.91,10.4 75,12.83 0,0 23,3.68 23,3.68 0,0 31,4 31,4 0,0 16,1.74 16,1.74 0,0 19,2.24 19,2.24 3.05,0.29 7.09,0.43 9.61,-1.57 5.37,-4.24 5.25,-15.46 2.91,-21.26 -2.51,-6.2 -8.91,-13.02 -13.36,-18 0,0 -19.12,-21 -19.12,-21 0,0 -6.55,-7.83 -6.55,-7.83 0,0 -5.97,-6.21 -5.97,-6.21 0,0 -6.7,-8.96 -6.7,-8.96 -16.3,-18.8 -32.46,-37.63 -46.78,-58 0,0 -11.49,-19 -11.49,-19 0,0 -12.68,-21 -12.68,-21 0,0 -4.36,-9 -4.36,-9 0,0 -9.14,-16 -9.14,-16 0,0 -6.95,-15 -6.95,-15 -1.77,-3.16 -6.68,-11.58 -6.16,-15 0.85,-5.47 6.47,-6.43 10.74,-7.58 0,0 30,-8.77 30,-8.77 23.24,-7.78 46.63,-17.95 67,-31.74 0,0 9,-6.98 9,-6.98 0,0 7,-4.56 7,-4.56 0,0 19.72,-17.41 19.72,-17.41 15.56,-16.89 29.36,-35.62 40.02,-55.96 13.45,-25.68 24,-63.48 29.71,-92 3.62,-18.09 9.34,-51.14 9.55,-69 0,0 1,-20 1,-20 0,0 0,-31 0,-31 0,0 -0.96,-12 -0.96,-12 0,0 0,-14 0,-14 0,0 -1,-10 -1,-10 0,0 0,-8 0,-8 0,0 -1.04,-17 -1.04,-17 0,0 -2.83,-30 -2.83,-30 0,0 -3.45,-37 -3.45,-37 0,0 -4.44,-31 -4.44,-31 0,0 -0.56,-10 -0.56,-10 0,0 -6.4,-40 -6.4,-40 0,0 -2.78,-22 -2.78,-22 0,0 -5.23,-26 -5.23,-26 0,0 -2.98,-18 -2.98,-18 0,0 -14.58,-62 -14.58,-62 0,0 -2.33,-13 -2.33,-13 0,0 -11.51,-39 -11.51,-39 0,0 -13.82,-51 -13.82,-51 0,0 -3.65,-10 -3.65,-10 0,0 -5.03,-19 -5.03,-19 0,0 -8.32,-22 -8.32,-22 0,0 -12.18,-36 -12.18,-36 0,0 -6.45,-15 -6.45,-15 0,0 -9,-25 -9,-25 0,0 -5.01,-11 -5.01,-11 0,0 -8.88,-23 -8.88,-23 0,0 -10.71,-23 -10.71,-23 0,0 -7.23,-17 -7.23,-17 0,0 -11.85,-23 -11.85,-23 0,0 -23.09,-46 -23.09,-46 0,0 -11.82,-20 -11.82,-20 0,0 -21.97,-37 -21.97,-37 0,0 -5.81,-8 -5.81,-8 0,0 -21.68,-33 -21.68,-33 0,0 -12.09,-15 -12.09,-15 0,0 -5.7,-8 -5.7,-8 0,0 -8.1,-9 -8.1,-9 -7.77,-9.86 -14.83,-19.88 -23.94,-28.68 -7.39,-7.12 -23.47,-17.39 -32.58,-23.09 -15.16,-9.5 -50.24,-22.1 -68,-26.33 0,0 -11,-1.79 -11,-1.79 0,0 -17,-4.6 -17,-4.6 0,0 -53,-10.21 -53,-10.21 0,0 -10,-0.59 -10,-0.59 0,0 -66,-7.54 -66,-7.54 0,0 -22,-1.34 -22,-1.34 0,0 -23,-1.83 -23,-1.83 0,0 -28,-1 -28,-1 0,0 -16,-1 -16,-1 0,0 -17,0 -17,0 0,0 -16,-0.93 -16,-0.93 0,0 -49,0 -49,0 0,0 -58,0 -58,0 z"
     style="display:none" />
  <path
     style="fill:#999999;stroke-width:0.887458"
     d="m 779.63215,501.27996 c -15.62328,-2.06141 -30.05204,-4.26974 -37.71698,-5.77262 -15.37207,-3.01403 -16.31519,-3.22516 -27.21825,-6.09322 -27.46555,-7.22482 -47.46162,-16.20785 -60.08559,-26.99284 -4.72289,-4.03489 -6.54197,-4.76213 -8.1423,-3.25514 -1.4906,1.40367 -13.84927,5.47161 -24.80446,8.16458 -11.81318,2.90386 -47.16827,8.21459 -64.34073,9.6647 -6.10128,0.51522 -15.48615,1.3097 -20.85527,1.76552 -37.12166,3.1515 -111.73872,4.08904 -150.86792,1.8956 -77.10666,-4.3223 -136.05328,-11.63786 -183.70388,-22.79854 -5.36912,-1.25756 -12.35785,-2.88412 -15.53052,-3.6146 -9.34146,-2.15079 -37.71518,-10.59017 -49.69767,-14.7819 C 89.208006,422.85877 52.920115,400.0813 34.207147,375.1477 18.044831,353.61266 12.08433,332.7742 14.14218,304.99876 c 0.530752,-7.16373 1.164183,-14.42271 1.407625,-16.13107 0.491056,-3.446 5.126271,-69.50206 6.632158,-94.51431 C 26.256352,126.67917 32.349933,98.531208 47.573086,77.064665 61.049034,58.061896 88.654458,46.983845 134.44994,42.201 c 4.88102,-0.509769 20.25624,-1.531262 34.16714,-2.269983 40.64104,-2.158191 125.04944,-8.226499 135.78113,-9.761609 1.70836,-0.244371 10.89355,-1.048439 20.41154,-1.786817 9.51799,-0.738379 21.299,-1.732537 26.18002,-2.209241 4.88102,-0.476704 19.45753,-1.6621 32.39223,-2.634214 12.93471,-0.972114 30.90574,-2.361648 39.93563,-3.087853 24.31586,-1.955539 85.16658,-5.641421 110.23237,-6.677054 75.66283,-3.126128 138.90179,2.030047 167.52013,13.65872 7.58701,3.082878 15.89286,8.591481 20.62109,13.676308 34.83074,37.45762 68.09875,113.914953 83.2838,191.404833 5.55733,28.35925 8.94253,60.74257 9.04515,86.52718 0.0825,20.73486 -1.18886,30.82901 -5.98012,47.47902 -5.53166,19.22296 -15.57188,33.94557 -29.48098,43.22981 -8.4677,5.65215 -12.41564,7.50982 -24.1337,11.35586 -5.64812,1.8538 -10.63808,3.95515 -11.08878,4.66968 -0.58015,0.91971 0.47408,3.86069 3.60972,10.07006 9.05088,17.92305 16.42637,28.20799 36.46894,50.85504 6.68903,7.55825 7.37362,8.66553 7.13279,11.53696 -0.26122,3.11471 -0.34378,3.17837 -4.25995,3.28491 -2.19646,0.0598 -5.19163,-0.0494 -6.65594,-0.24265 z M 404.681,408.291 c 13.06794,-1.4764 17.46301,-2.40573 25.26417,-5.34208 13.13359,-4.94348 26.27263,-14.73811 35.98616,-26.82626 9.79663,-12.19156 19.10546,-32.11795 21.27657,-45.54443 1.57242,-9.72407 1.28127,-9.46626 5.99789,-5.31097 10.14337,8.93619 25.14204,16.07759 40.15647,19.11989 11.26155,2.28189 31.58758,1.44009 42.12267,-1.74449 10.90858,-3.29749 21.18505,-8.57092 30.53359,-15.66849 l 7.87169,-5.97631 9.21192,9.28814 c 14.61103,14.73191 25.25002,21.92455 38.37124,25.94145 3.34696,1.02462 13.13118,3.27541 21.74273,5.00175 18.53254,3.71519 21.75124,3.53608 25.61602,-1.42538 1.55561,-1.99703 10.89659,-43.46277 10.89659,-48.37127 0,-4.07706 -0.10932,-4.22831 -11.72699,-16.22439 -6.44985,-6.65992 -13.17066,-13.12098 -14.93512,-14.35791 -2.34588,-1.64451 -6.25644,-2.82617 -14.54984,-4.39659 l -11.34172,-2.14764 0.58234,-5.80917 c 0.71997,-7.182 5.3756,-34.49949 5.9832,-35.10709 0.24424,-0.24424 11.4865,1.75512 24.98279,4.44301 28.6196,5.69983 33.06983,5.99427 36.97707,2.44658 2.48345,-2.25493 3.09313,-4.16142 8.01746,-25.0707 4.01572,-17.05116 5.19171,-23.50533 4.77022,-26.18002 -0.4861,-3.08468 -2.20351,-5.21638 -13.10635,-16.26799 -6.90083,-6.99499 -13.59038,-13.26678 -14.86569,-13.9373 -1.27531,-0.67052 -9.06276,-2.49101 -17.30544,-4.04554 -8.24268,-1.55453 -15.35109,-3.15504 -15.79646,-3.55669 -0.48161,-0.43433 0.53259,-8.66414 2.50265,-20.30793 2.8919,-17.09221 3.17418,-19.99757 2.22354,-22.88537 -1.16626,-3.54279 -20.96901,-24.539923 -26.18332,-27.762538 -2.0687,-1.278527 -9.29854,-2.641471 -28.2754,-5.33038 -22.90729,-3.245825 -25.86678,-3.494003 -29.14739,-2.444243 -6.45163,2.064452 -6.72884,3.104745 -11.30801,42.435211 -1.56305,13.42506 -2.63958,21.60942 -2.86455,21.7778 -0.11459,0.0858 -2.90766,-0.13537 -6.20683,-0.49141 -3.29918,-0.35604 -7.29274,-0.3647 -8.87459,-0.0192 -2.12267,0.46358 -3.92224,0.11388 -6.86965,-1.3349 -22.13165,-10.87869 -52.04655,-12.66298 -75.94076,-4.52953 -6.3855,2.17359 -15.26965,6.40361 -20.85647,9.93041 l -3.23604,2.04283 -4.78392,-4.88177 c -6.64561,-6.78153 -8.14077,-7.4074 -17.69573,-7.4074 -10.33738,0 -12.81092,1.15557 -19.2639,8.99953 -2.75429,3.34799 -5.15572,6.08726 -5.3365,6.08726 -0.18079,0 -1.99808,-1.14543 -4.03843,-2.54541 -8.83046,-6.05896 -23.7927,-12.15794 -35.4031,-14.43118 -3.06893,-0.60087 -10.57183,-1.06473 -16.67311,-1.03078 -15.81781,0.088 -27.80042,2.98435 -42.15427,10.1892 -23.41352,11.7523 -40.18779,33.18027 -47.11423,60.1852 -2.06842,8.06438 -2.3898,11.094 -2.39979,22.6232 -0.008,9.24529 0.46842,15.69741 1.55963,21.12087 0.86415,4.29495 1.42446,7.94238 1.24513,8.1054 -0.17932,0.16302 -5.81978,-4.974 -12.53436,-11.4156 l -12.20834,-11.712 -7.57704,-34.11037 c -4.16737,-18.76071 -7.98692,-35.65576 -8.48788,-37.54456 -1.25381,-4.72732 -23.01063,-27.95935 -28.81569,-30.76953 -5.14038,-2.48842 -5.3233,-2.46206 -34.74347,5.00641 -22.01537,5.58873 -23.972,6.24556 -26.74295,8.97759 -2.83875,2.79886 -2.96961,3.20447 -2.59182,8.03386 0.22325,2.8539 6.30674,25.43159 13.86106,51.44259 7.40475,25.49603 13.46318,46.89247 13.46318,47.54762 0,0.70234 -3.26621,2.32704 -7.95866,3.95885 l -7.95866,2.76763 -0.83122,-3.01038 c -0.45716,-1.65571 -5.09768,-20.50369 -10.31228,-41.8844 -5.21459,-21.38071 -10.07589,-41.07048 -10.8029,-43.75504 -1.22408,-4.52003 -2.35277,-5.91477 -15.26132,-18.85849 l -13.9395,-13.97747 h -5.02807 c -4.734611,0 -6.830583,0.9 -35.911346,15.42007 -16.985798,8.48104 -31.629372,16.25229 -32.541275,17.26943 -0.911904,1.01714 -1.855785,3.60404 -2.097515,5.74865 -0.573168,5.08514 -1.078475,3.88879 37.554318,88.91212 l 31.856138,70.10921 10.65799,11.00264 c 5.86189,6.05145 12.2155,12.14163 14.11911,13.53373 5.67603,4.15085 8.72562,3.70466 43.35495,-6.34348 16.82169,-4.88102 30.95804,-8.87458 31.4141,-8.87458 0.45608,0 1.33376,1.8864 1.95041,4.192 0.95974,3.58834 2.80731,5.89915 12.83035,16.04722 6.44003,6.52038 12.78755,12.42143 14.1056,13.11344 1.31804,0.69202 4.37306,1.25822 6.78895,1.25822 5.31355,0 39.35698,-8.20422 42.44831,-10.22974 1.20975,-0.79265 2.691,-2.61005 3.29169,-4.03866 l 1.09216,-2.59748 2.60008,2.71391 c 1.43005,1.49266 5.15908,3.9737 8.28673,5.51344 4.83087,2.37823 6.9022,2.85089 13.76405,3.14083 6.65738,0.2813 8.96264,0.008 13.11269,-1.55626 6.04712,-2.27888 12.89857,-7.5442 16.08779,-12.36344 2.80869,-4.24422 5.94442,-13.21037 5.94442,-16.99719 v -2.74715 l 3.66088,2.05357 c 2.01348,1.12946 3.7974,2.45292 3.96426,2.94102 0.16686,0.4881 1.26517,10.54011 2.44069,22.33781 1.78708,17.93555 2.43187,21.86179 3.93506,23.96137 2.91905,4.0772 23.81381,24.17733 26.075,25.08337 2.99053,1.19829 9.39423,1.10368 22.04619,-0.32572 z"
     id="path1"
     transform="scale(3.1249996)" />
  <path
     style="fill:#5ec6c7;fill-opacity:1;stroke-width:0.887458"
     d="m 760.94549,500.37562 c -49.79779,-4.97958 -84.41803,-18.2055 -104.90759,-33.74184 -3.90482,-2.96086 -4.87278,-4.63409 -5.6649,-4.63496 -0.79214,-8.8e-4 -2.31328,0.0211 -4.44975,0.96559 -19.41151,8.581 -68.58628,16.75151 -129.95987,20.48627 -24.10125,1.46663 -119.32567,0.49278 -139.16859,-0.9614 -39.69356,-2.90904 -50.10093,-1.60488 -69.50912,-3.64707 C 242.34953,472.00937 191.10694,462.73508 141.7125,446.29367 106.55899,434.59249 72.567385,415.60598 51.593178,397.94375 33.140741,382.40509 18.029465,364.26776 12.933386,344.30896 c -3.2271179,-12.63903 -3.5420799,-29.756 -1.317642,-55.69127 1.025667,-11.9585 3.515968,-42.20893 5.228447,-67.83429 1.712478,-25.62536 3.231447,-52.93094 3.986596,-60.98463 4.937783,-52.66153 9.232904,-79.175904 29.334924,-93.434843 15.065793,-10.686599 14.710916,-15.452366 78.934559,-25.082001 5.83853,-0.875424 20.17246,-3.606458 40.67275,-4.841988 49.68742,-2.994604 99.51454,-7.738257 128.74417,-10.391032 123.89117,-11.243915 220.01203,-17.392279 274.6461,-17.423724 67.42039,-0.0388 112.30577,7.849651 135.19728,19.663128 16.6985,8.617493 36.26342,33.944875 55.86678,73.79432 21.59701,43.90207 37.29766,94.16277 45.56559,144.19952 6.49304,39.29538 7.95974,81.96036 4.18493,103.60669 -6.75538,38.73826 -25.04777,63.47823 -57.88828,74.02358 -7.10691,2.28209 -9.16196,2.33483 -9.16196,3.94746 0,2.60724 10.40454,22.13436 16.40568,30.53681 3.26739,4.57482 11.49258,12.77189 17.97266,20.3546 10.01752,11.72208 11.52535,13.50999 11.90695,16.00284 l 0.875,5.7161 -5.74034,3.7841 c -2.75109,1.81355 -11.05812,-2.24438 -19.90209,-3.12874 z M 408.19237,408.19998 c 20.99902,-2.59973 35.43888,-9.3573 50.00958,-23.40349 4.30577,-4.15078 9.82662,-10.53404 12.26855,-14.18503 8.19797,-12.25699 15.88056,-30.43432 17.26094,-40.84013 0.92021,-6.93692 2.38696,-6.51934 9.05101,-1.41162 9.9784,7.64803 22.36511,13.31183 35.08498,16.01835 7.13144,1.51742 27.98635,1.72425 35.72105,0.35426 12.76974,-2.26179 26.66155,-8.53747 38.98639,-17.61225 l 7.09676,-5.22534 9.41498,9.09605 c 11.47149,11.08289 19.60122,17.33324 27.83899,21.40333 10.37095,5.12406 45.2553,12.85992 52.15444,11.56564 5.09387,-0.95562 6.45852,-3.36727 9.85005,-17.40727 4.5219,-18.71939 6.27422,-29.77007 6.62242,-34.1694 0.24916,-3.14794 -0.89042,-5.41053 -3.69499,-8.85762 -5.45721,-6.70745 -20.66862,-19.36239 -24.32744,-23.89058 -1.12806,-1.39611 -6.78997,-2.27316 -11.53696,-3.23665 -4.74699,-0.96349 -9.50413,-1.9478 -10.57142,-2.18736 -1.6814,-0.37739 -1.87997,-0.8796 -1.48702,-3.76073 1.00728,-7.38555 5.80671,-36.17373 6.07552,-36.44254 0.15855,-0.15856 11.15171,1.73683 24.42923,4.21198 31.04799,5.78786 35.94552,5.81396 39.25338,0.20923 2.17552,-3.68611 9.52342,-42.94081 9.51457,-48.48294 -0.002,-1.14359 -1.16699,-3.31653 -2.06197,-4.78084 -2.26793,-3.71067 -13.24119,-16.52469 -20.29179,-22.39213 l -5.48308,-4.56297 -15.2007,-3.68371 c -8.7118,-2.1112 -16.12318,-3.54556 -16.33988,-3.76019 -0.21668,-0.21464 0.88589,-8.86567 2.45017,-19.22453 1.56428,-10.35886 2.8398,-19.89666 2.83449,-21.19511 -0.006,-1.41822 -1.49728,-4.25288 -3.73553,-7.09966 -5.81241,-7.392671 -21.30681,-22.708167 -24.01514,-23.737877 -6.05777,-2.303157 -49.79181,-8.474968 -55.1017,-7.776032 -4.59697,0.605093 -7.32072,3.404946 -8.6546,8.896378 -0.6101,2.511741 -2.5369,15.948455 -4.28178,29.859361 l -3.17251,25.29257 -8.87458,0.034 c -7.70477,0.0295 -9.63928,-0.28545 -14.67579,-2.38959 -24.24217,-10.12785 -51.88126,-11.2509 -75.31482,-3.06024 -3.61323,1.26293 -10.25026,4.2629 -14.74895,6.66662 l -8.17944,4.37037 -4.27646,-4.34174 c -6.06218,-6.15472 -8.41208,-7.04793 -18.542,-7.04793 -10.40634,0 -11.83466,0.64214 -18.94021,8.51498 l -5.32869,5.90414 -5.27551,-3.25624 c -7.15079,-4.41372 -19.96904,-9.84546 -28.85002,-12.22521 -6.11074,-1.63744 -9.5954,-1.95501 -21.07676,-1.92082 -14.76954,0.044 -21.70485,1.14693 -32.30864,5.13819 -16.0855,6.05456 -30.21478,16.0374 -40.01936,28.27511 -7.26474,9.06759 -14.69921,23.86451 -17.92957,35.68549 -2.18408,7.99233 -2.42561,10.33032 -2.42947,23.51765 -0.002,8.31296 0.50377,17.44952 1.17096,21.13509 0.64639,3.57061 1.03088,6.63638 0.85443,6.81283 -0.17643,0.17644 -5.57788,-4.74175 -12.00321,-10.92932 l -11.68241,-11.25012 -7.7136,-35.05461 c -5.28052,-23.99738 -8.35681,-36.17432 -9.75275,-38.60443 -4.21277,-7.33378 -23.68634,-27.06069 -28.53173,-28.9029 -3.90658,-1.48527 -7.76866,-0.89804 -29.24013,4.44601 -24.92791,6.20433 -28.33942,7.33333 -31.60094,10.45807 -4.54248,4.35197 -4.43658,4.87325 14.37041,70.74026 5.42656,19.00525 9.75174,35.1336 9.6115,35.8408 -0.23275,1.17376 -13.68992,6.98583 -14.43945,6.23631 -0.17777,-0.17777 -5.39162,-20.83707 -11.58634,-45.90955 l -11.26311,-45.58632 -6.02347,-6.76745 c -3.3129,-3.72209 -9.61246,-10.30937 -13.999,-14.63839 l -7.97554,-7.87096 -6.12926,0.34634 c -5.731244,0.32385 -7.509738,1.02542 -27.387473,10.80372 -30.589917,15.04786 -40.812507,20.72756 -42.0009,23.33579 -2.109051,4.62887 -1.175171,9.14389 4.739708,22.91507 3.15686,7.34987 18.678165,41.84606 34.491789,76.65819 l 28.752046,63.29479 7.77893,8.42615 c 4.27842,4.63439 10.53229,10.79589 13.89748,13.69223 9.061,7.79856 8.53985,7.84779 53.82079,-5.08339 12.83849,-3.66637 23.84495,-6.4734 24.45882,-6.23784 0.61385,0.23556 1.57976,1.97585 2.14646,3.86731 1.15559,3.85704 12.6427,16.71808 22.09254,24.73495 5.58203,4.73557 5.83914,4.84667 11.20919,4.84336 9.46745,-0.006 43.3473,-8.55801 44.94507,-11.34535 2.29454,-4.00289 2.25087,-4.00118 7.54231,-0.29451 7.49614,5.25106 12.19302,6.54174 22.48492,6.17877 6.93518,-0.24458 9.48749,-0.7287 13.05744,-2.47671 9.94748,-4.87076 17.9211,-15.84143 18.90009,-26.0041 0.22335,-2.31848 0.60765,-4.21542 0.85402,-4.21542 0.24636,0 1.75993,0.81085 3.36347,1.8019 3.39427,2.09777 3.16423,1.06197 5.80803,26.15303 1.02861,9.76205 2.37911,18.97629 3.00112,20.47609 1.5704,3.78661 5.50717,8.08305 17.15654,18.72398 l 10.03512,9.16641 h 7.29682 c 4.01326,0 12.24762,-0.61292 18.29859,-1.36204 z"
     id="path2"
     transform="scale(3.1249996)"
     sodipodi:nodetypes="ssssssssssssssssssssssssssscssssssssssscssssssssssssscsscssscssssscsssscssscsssssscssscssssssssscsscssssscsssssscsssssssssscsss" />
  <path
     style="fill:#ffffff;fill-opacity:1;stroke-width:0.887458"
     d="m 770.75757,512.95311 c -48.48502,-6.05096 -90.40992,-18.22821 -112.63502,-32.71526 -11.65261,-7.59556 -9.60712,-7.30159 -23.37662,-3.35961 -27.84112,7.97046 -64.38848,12.97893 -115.13907,15.77873 -61.42353,3.3886 -151.20011,1.419 -209.8839,-4.60461 -30.30037,-3.11018 -78.12612,-10.54338 -105.60754,-16.41378 -13.06707,-2.79129 -41.82053,-10.47005 -56.79734,-15.168 C 95.484057,440.21119 51.588931,415.03849 29.450593,388.87669 16.782819,373.90665 7.7885658,357.17186 3.4396326,340.48047 0.62820682,329.6901 0.36044325,314.18685 2.5482054,288.86769 5.8567207,250.57795 7.0512268,234.69934 7.9892346,216.53984 11.744684,143.83565 15.528332,117.14184 25.674617,91.768579 31.147326,78.082743 34.5094,72.67453 43.364032,63.313482 65.346535,40.073755 96.855774,30.949116 168.61708,27.041939 207.86538,24.904993 281.03015,19.658407 310.61042,16.85971 416.1204,6.8770304 518.93332,0.48981657 574.64177,0.45686134 644.08799,0.41577926 686.50634,5.9697773 711.14076,18.329199 c 10.2395,5.137289 14.03799,8.083302 22.01063,17.070852 39.71314,44.76862 74.18628,129.057669 87.69482,214.419469 8.20846,51.87011 8.36416,88.98632 0.48765,116.24956 -5.817,20.13462 -12.23444,31.98233 -23.58331,43.53889 -8.03783,8.18492 -15.10078,13.06278 -27.13126,18.73754 -7.62761,3.59793 -9.17732,4.66451 -9.16395,6.3071 0.0396,4.87371 10.52844,20.03517 26.46959,38.26152 15.17713,17.35279 15.68215,18.17233 15.60892,25.32973 -0.0716,7.00114 -2.18253,11.98721 -6.0815,14.36479 -3.2523,1.98324 -12.59736,2.10383 -26.69478,0.34446 z m 17.71781,-11.84542 c 3.40079,-3.40078 1.59231,-5.7996 -7.40236,-15.86043 -17.7573,-19.86214 -24.68756,-31.95155 -33.24627,-49.03263 -3.04871,-6.08445 -6.80149,-10.83249 -5.99511,-11.44438 0.5924,-0.44951 6.52195,-2.71808 10.42676,-3.81904 14.60529,-4.11792 26.9798,-11.13607 35.99553,-20.66888 9.16047,-9.68584 13.71666,-17.72893 17.92238,-33.35497 4.50211,-16.72724 6.81346,-27.83219 6.79846,-49.56368 C 812.93609,261.30122 796.41541,200.32044 773.59839,140.83096 767.17437,124.08201 753.37697,94.301954 746.16652,82.281518 734.66166,63.101973 721.91985,45.774543 714.36639,38.913723 699.80669,25.689124 684.45916,23.580157 637.05881,19.298258 596.42634,15.627734 574.49493,16.740739 536.88171,17.693797 507.37744,18.441387 543.21042,15.213487 280.3194,36.067701 222.06593,40.688743 159.13813,37.094793 101.73806,51.151773 60.789577,61.531679 44.035966,72.859021 34.234247,113.95177 21.527699,170.28226 14.659382,316.02113 17.136691,332.27903 c 2.392559,14.75283 6.119685,21.40062 15.383719,35.48699 24.424026,37.13786 77.61318,62.96628 160.14107,82.85086 16.78872,4.04514 43.68924,11.03147 60.6177,13.7055 34.73665,5.48701 78.38934,11.92649 110.03559,12.98146 7.44592,0.24822 57.73076,2.11256 63.71179,2.4624 3.018,0.17653 67.66966,0.71186 85.29936,-0.52467 45.75486,-3.20922 77.51697,-6.4819 96.89979,-10.52361 10.50316,-2.19013 25.08979,-6.07715 31.8389,-8.82372 5.56649,-2.2653 9.7633,-1.64707 10.76809,-0.43538 4.9699,5.9932 27.11564,16.27537 42.69904,21.69495 16.727,5.81729 34.93581,11.35471 58.10125,14.6042 14.01172,1.96547 23.35083,4.33167 25.20815,4.51506 0.61013,0.0602 9.65804,1.81083 10.63424,0.83462 z"
     id="path3"
     transform="scale(3.1249996)"
     sodipodi:nodetypes="sssssssssssssssssssssssssssssssssssssssssssssssssssssssss" />
  <path
     style="fill:#fdf702;fill-opacity:1;stroke-width:0.627528"
     d="m 365.15402,370.3157 c 1.76708,-8.65151 -1.78112,-32.35824 -1.50747,-33.07136 0.22079,-0.57537 4.38436,-3.32262 10.89033,-3.89529 16.30799,-1.43546 20.55289,-1.75238 28.22466,-9.44296 4.9577,-4.96986 7.38117,-9.67828 9.31612,-16.82656 0.97308,-3.59484 2.00819,-4.88302 1.26435,-6.43499 -0.47177,-0.9843 0.7559,-0.86988 -0.17463,-1.19713 -1.4961,-0.52615 0.10838,1.51684 -2.37335,3.80441 -6.71572,6.19033 -19.32468,9.33147 -33.16522,9.886 -19.512,0.78178 -34.19371,-2.10485 -49.24159,-12.07269 -16.44324,-10.89213 -33.37522,-34.0617 -37.81515,-56.02563 -1.95851,-9.68856 -3.50764,-25.4891 -2.78244,-32.02368 1.58902,-14.31808 7.78924,-28.53737 15.66627,-40.21094 14.81284,-21.95228 47.69678,-36.58614 73.18616,-33.30465 16.09233,2.07173 28.48009,7.19498 43.64928,18.17151 3.50723,2.53786 5.4125,3.80178 6.06727,3.80178 1.59561,0 1.65704,0.86356 5.0734,-3.58398 6.33611,-8.24859 10.72303,-13.35245 12.07306,-14.10219 0.78016,-0.43326 4.19477,-1.33663 5.4592,-1.05998 l 3.04073,0.6653 1.5625,16.91054 0.6875,18.59804 0.10279,-0.0847 c 3.15423,-2.59942 1.43989,2.27129 7.17232,-6.38118 4.99433,-7.53837 13.61945,-16.85741 20.05167,-21.08528 19.99711,-13.14402 47.89579,-17.11729 71.52817,-9.97704 8.47328,2.5601 16.44206,6.09622 22.74239,10.29048 2.3998,1.59759 3.82438,1.96721 4.61713,1.96721 2.05279,0 2.38898,-0.0251 2.38898,-2.3498 0,-1.92324 1.6122,-3.01873 3.91573,-2.62627 1.29427,0.22051 5.13079,0.26127 8.75477,0.47253 6.13335,0.35755 3.70734,1.10227 5.29964,-0.16751 0.94082,-0.75026 4.18929,-1.22042 4.54521,-2.49618 0.55612,-1.99345 7.41595,-58.574062 7.41595,-60.93625 0,-0.993844 4.91459,-1.263681 18.88202,0.707427 4.83196,0.681895 12.3228,1.762261 15.88242,2.248035 3.55962,0.485774 8.26279,1.173977 8.46538,1.376561 0.20258,0.202585 0.4742,3.591515 0.0689,5.92679 -2.46818,14.220727 -7.98987,55.580247 -7.98987,57.221757 0,2.47854 -0.55658,2.47208 3.00432,3.41722 1.47423,0.39129 14.51264,3.72242 29.43257,6.63862 14.91992,2.91619 29.53264,6.1431 30.33383,6.33063 1.70624,0.39937 2.37158,0.0736 -2.37137,20.73135 -1.85254,8.06869 -4.08685,17.20143 -4.27762,17.39221 -0.42175,0.42174 -7.06338,-0.96776 -37.7519,-7.01304 -25.41694,-5.00684 -24.45484,-5.58057 -26.49507,-2.46678 -1.4123,2.15546 -8.56296,47.21174 -8.56296,53.74115 0,3.95725 1.9059,10.57407 3.92527,14.55909 3.60516,7.11445 10.25029,13.89319 16.5304,16.25433 3.36624,1.26561 27.33421,7.58161 29.42762,7.58161 0.6532,0 2.32652,1.76704 2.32652,2.37818 0,1.09532 -7.39954,34.50957 -7.73145,34.93279 -0.10168,0.12964 -6.36394,0.40306 -12.15921,-0.69101 -24.64852,-4.65334 -33.92977,-8.97353 -46.02421,-20.62157 -11.97544,-11.53344 -20.34853,-27.58818 -22.83955,-44.62436 -0.77813,-5.3217 -0.28089,-20.17111 0.78763,-28.36038 0.31523,-2.41598 1.27616,-8.36004 1.82985,-12.67429 0.55368,-4.31426 0.48387,-9.21201 0.83791,-11.80056 0.35404,-2.58855 1.03469,-7.93438 1.08761,-11.58663 l 0.0689,-4.75517 -1.3052,-2.05831 c -1.41309,-2.22845 -5.16249,-0.70463 -7.85812,0.69913 -1.94633,1.01356 -51.80249,52.90464 -69.61734,72.30943 -4.18423,4.55766 -4.90714,3.66885 -2.79576,5.78023 2.5827,2.5827 15.40199,2.97704 22.15271,0.66387 8.16535,-2.79788 16.06823,-8.76859 21.95873,-13.67738 l 3.99929,-3.33277 10.13415,13.09353 c 5.60262,7.2387 10.49648,14.91681 10.78655,15.38831 0.37471,0.60908 -0.98013,3.50386 -4.37283,6.77769 -16.45919,15.88244 -39.35412,24.0928 -60.64675,21.98533 -15.45755,-1.52993 -28.94657,-6.08775 -41.41134,-16.07884 -6.18176,-4.95496 -11.09813,-10.39119 -17.58269,-19.84056 -5.416,-7.89225 -9.08732,-10.12908 -8.91156,3.54836 0.30903,24.04893 -2.59853,35.34295 -10.90156,51.79629 -9.04776,17.92909 -23.27045,32.39681 -39.59412,38.3542 -6.28435,2.29351 -16.13382,5.11942 -24.11636,5.64994 -3.4514,0.22937 -8.99651,0.43177 -9.72524,0.60254 -2.14436,0.50251 -5.9749,3.42508 -4.51622,-3.7165 z m 24.67201,-101.82392 c 6.48433,-2.54148 7.49242,-5.37916 11.49673,-10.19085 18.54518,-22.28428 18.32774,-50.48267 -1.74525,-68.80776 -7.97336,-7.27907 -15.70322,-9.98975 -26.13596,-10.70082 -5.0952,-0.34727 -6.79983,-0.11083 -12.83315,1.25952 -9.7061,2.20454 -13.60522,4.43289 -19.99794,10.86346 -5.72306,5.75692 -8.80555,10.90943 -11.02617,19.11393 -1.89756,7.01094 -2.07571,20.74151 -0.1691,27.89198 2.95484,11.08136 6.84226,16.69469 13.89865,23.7833 5.27861,5.30271 8.73802,7.21866 16.3103,9.93576 3.85509,1.38329 5.67396,1.24434 13.9998,1.05664 10.88726,-0.24545 18.31001,-14.97991 16.20209,-4.20516 z m 106.4616,-24.82768 c 2.77238,-2.15669 45.87423,-55.81986 47.54117,-58.5434 1.48428,-2.42508 1.48185,-4.76584 -0.005,-6.11182 -2.98618,-2.70244 -15.05372,-3.05949 -24.11752,-1.21787 -2.66029,0.54053 -7.81255,2.02654 -10.69327,3.41027 -9.21692,4.42728 -16.87512,13.2908 -20.48976,23.97475 -4.22684,12.49344 -4.28148,33.86799 0.49747,39.14868 1.74343,1.92646 2.35606,3.60214 4.88086,1.19555 z"
     id="path7"
     transform="scale(3.1249996)"
     sodipodi:nodetypes="ssssssssssssssssssscccssssssssssssssssssssssssssssssssssssscsssssscssssssssssssscssssscsssscscssssccs" />
  <path
     style="fill:#fdf702;fill-opacity:1;stroke-width:0.627528"
     d="m 209.66058,318.88469 c -2.49868,-8.71958 -5.67886,-17.38663 -6.2268,-19.10734 -1.22646,-3.85146 -1.13157,-3.91063 -3.54055,-3.91063 -0.96921,0 -21.04601,4.52508 -44.30956,11.27796 -23.26355,6.75287 -43.57611,13.29764 -43.84044,13.01614 -0.26432,-0.28149 -7.29983,-16.61271 -14.7178,-33.00687 -7.417973,-16.39417 -21.382759,-43.29031 -29.734249,-61.75531 -8.35149,-18.46501 -15.914449,-38.39639 -17.952409,-42.76418 -2.037961,-4.36779 -4.839899,-11.21434 -4.927917,-11.92982 -0.138676,-1.12728 4.496146,-3.33452 27.019439,-14.51047 14.295585,-7.0934 28.569417,-12.80173 28.816846,-12.53239 0.24743,0.26933 1.58467,4.86216 2.5133,8.83127 0.92862,3.96911 7.22832,28.45586 13.3882,53.6511 7.80339,16.44178 7.06754,51.17319 16.65381,66.17862 2.0295,2.26176 -0.18888,2.32617 43.01164,-13.6285 11.01354,-4.06748 12.05796,-4.1925 12.84123,-5.58801 0.87861,-1.56535 0.53589,-2.55433 -3.69758,-17.1917 -18.09632,-62.56861 -25.76855,-89.75296 -25.40353,-90.11797 0.84182,-0.84183 43.38852,-11.42732 43.85031,-10.90348 0.26084,0.29591 6.60834,24.33498 12.88333,52.80905 6.27499,28.47408 12.86718,54.22459 13.19793,55.00809 1.0826,2.56451 1.10477,0.79002 10.7739,-1.16464 4.9556,-1.0018 8.84416,-0.73746 8.94682,-0.63479 0.33938,0.33937 7.56979,35.74446 7.56979,37.24657 0,1.20854 -1.92098,2.54622 -3.85323,2.88758 -8.72775,1.54188 -11.67111,2.90035 -12.73796,3.86583 -1.82461,1.65126 -2.52801,1.81842 0.90227,17.17425 3.78176,16.92933 5.31652,25.83439 5.04364,26.10693 -0.11491,0.11476 -7.40526,2.28636 -14.82578,4.06189 -7.42051,1.77553 -15.43841,3.73124 -15.98422,3.88768 -0.80853,0.23173 -1.95905,-4.34023 -5.66043,-17.25686 z"
     id="path8"
     transform="scale(3.1249996)"
     sodipodi:nodetypes="sssssssssssssssssssssssssssssss" />
  <path
     style="fill:#fdf702;fill-opacity:1;stroke-width:0.627528"
     d="m 281.23869,329.95233 c -5.98336,-1.9575 -11.2308,-3.33705 -14.40405,-10.03437 -1.81846,-3.83799 -3.91385,-8.63854 -3.91385,-14.72288 0,-7.65972 3.41597,-13.6371 7.66614,-18.248 9.25243,-10.03769 27.44823,-6.52551 34.14926,6.04692 6.36402,11.94011 2.04338,31.00742 -8.71667,35.84282 -3.51406,1.57916 -11.34255,2.24037 -14.78083,1.11551 z"
     id="path9"
     transform="scale(3.1249996)"
     sodipodi:nodetypes="sssssss" />
  <path
     style="fill:#ffb67e;fill-opacity:1;stroke-width:0.627528"
     d="m 376.38939,391.5016 c -5.8454,-6.06108 -11.51602,-13.90939 -11.03413,-14.16559 0.41863,-0.22257 8.86969,-1.0494 13.35651,-1.45545 18.44293,-1.66909 27.73151,-4.60724 40.03804,-13.01765 15.53706,-10.61817 25.01081,-23.92851 32.64099,-44.78382 3.62267,-9.90172 5.0758,-15.54096 5.47772,-29.71475 0.32634,-11.50807 1.15539,-15.94385 2.10423,-14.49002 4.31692,6.61443 11.13596,14.62408 19.30152,22.2595 1.21621,1.13724 2.25421,3.81348 1.88677,14.98932 -0.44381,13.49867 -1.34689,20.87004 -4.83588,30.20909 -9.73711,26.06357 -25.9319,45.50952 -48.11636,53.83316 -5.19156,1.94788 -14.12205,3.65666 -24.84227,4.74363 -15.18886,1.54007 -15.31621,2.64685 -25.97714,-8.40742 z"
     id="path10"
     transform="scale(3.1249996)"
     sodipodi:nodetypes="sssssssssssss" />
  <path
     style="fill:#ffb67e;fill-opacity:1;stroke-width:0.627528"
     d="m 357.10863,330.29718 c -2.77058,-1.4714 -7.62512,-3.71969 -9.9476,-5.37814 -4.20125,-3.00005 -21.69195,-22.0789 -21.24987,-22.52098 0.12747,-0.12747 9.99495,4.53084 12.37912,5.61569 10.56584,4.80769 18.91112,6.43674 32.50984,7.05146 12.67521,0.57298 22.73982,-1.69701 31.77075,-5.79183 2.24344,-1.01723 7.94644,-1.41956 8.08999,-1.27601 0.82429,0.82429 -6.26512,12.21055 -9.61003,14.95227 -6.44711,5.28451 -11.75135,7.49685 -32.38709,9.11572 -4.25451,0.33376 -6.67615,0.82295 -11.55511,-1.76818 z"
     id="path11"
     transform="scale(3.1249996)"
     sodipodi:nodetypes="ssssssssss" />
  <path
     style="fill:#ffb67e;fill-opacity:1;stroke-width:0.627528"
     d="m 351.25043,263.30361 c -7.16097,-5.17188 -13.76534,-12.57731 -17.07681,-22.40926 -1.88926,-5.6093 -2.49124,-8.69784 -2.75209,-16.95173 -0.25254,-7.99117 1.06843,-10.36742 2.26148,-14.7161 4.51869,-16.47079 20.20243,-25.76316 38.18515,-27.09309 9.49229,-0.70201 19.01951,4.42866 26.74219,11.5785 3.63008,3.36082 9.02487,12.81401 8.38829,13.45058 -0.17425,0.17425 -3.77724,-0.5471 -5.10388,-0.91546 -3.95368,-1.09784 -12.4562,-0.63042 -17.84659,0.74821 -13.76231,3.5198 -23.44914,13.36205 -26.85076,26.54505 -2.48719,9.63909 -2.85875,18.47024 -0.365,27.92372 0.4776,1.81049 2.22533,5.62236 2.12689,5.72079 -0.0984,0.0984 -3.83235,-1.08146 -5.4589,-2.25621 z"
     id="path12"
     transform="scale(3.1249996)"
     sodipodi:nodetypes="ssssssssssssss" />
  <path
     style="fill:#ffb67e;fill-opacity:1;stroke-width:0.627528"
     d="m 223.47737,353.45103 -11.30116,-12.64163 4.21981,-1.79279 c 1.28331,-0.54522 9.61847,-3.12969 17.72927,-5.08775 8.11079,-1.95805 12.94298,-2.4031 13.54697,-2.93353 0.6083,-0.53422 2.51239,0.0121 2.51239,-1.08022 0,-1.08457 -1.83552,-10.36293 -4.07893,-20.61856 -2.24342,-10.25564 -4.96282,-21.03174 -4.96282,-21.4622 0,-0.50046 4.47947,-2.53705 9.75875,-3.61059 5.64537,-1.14799 6.42901,-2.06146 7.25623,-2.88868 1.1947,-1.1947 1.60765,-0.0373 -1.88247,-19.17849 -1.9438,-10.6606 -3.58868,-24.36709 -3.76331,-25.05738 -0.17463,-0.69028 8.21071,5.22542 13.64651,10.45977 l 10.60526,10.21222 1.51048,9.34289 c 0.66894,4.13761 1.71368,7.92913 1.85399,8.36181 0.15278,0.47112 -1.63991,4.53092 -4.07304,5.63415 -7.68288,3.48359 -13.05099,8.77118 -15.02641,18.24533 -1.0684,5.12409 -1.10888,6.74606 0.75858,12.75545 1.54101,4.95884 2.44254,6.29818 5.33503,10.08755 2.04872,2.68396 2.49519,5.74158 4.81254,16.53546 1.40489,6.54371 2.82716,14.98359 2.62047,15.19028 -0.37591,0.37591 -32.2666,7.91418 -36.42455,8.67289 -2.1668,0.39537 -5.40075,1.20435 -14.65359,-9.14598 z"
     id="path13"
     transform="scale(3.1249996)"
     sodipodi:nodetypes="scssssssssssscssssssssss" />
  <path
     style="fill:#ffb67e;fill-opacity:1;stroke-width:0.627528"
     d="m 302.82622,356.79452 c -4.95702,-1.40008 -11.02204,-2.98478 -18.40151,-11.62807 l -11.29125,-13.225 9.01107,1.6278 c 5.66167,1.02275 15.13304,-2.69934 18.93631,-5.48554 4.4696,-3.27435 8.49826,-6.97078 8.67987,-19.30905 0.0483,-3.27883 -0.72729,-8.80429 -0.84948,-10.37638 l -0.58361,-7.50845 12.8939,11.42823 c 9.79206,8.67897 11.66595,14.66099 12.90256,22.33478 1.46794,9.10929 -0.58098,19.37936 -6.56006,25.34433 -4.40839,4.39798 -11.2026,7.16315 -17.11839,7.40956 -2.63033,0.10956 -6.03152,-0.16372 -7.61941,-0.61221 z"
     id="path14"
     transform="scale(3.1249996)"
     sodipodi:nodetypes="sscsssscsssss" />
  <path
     style="fill:#ffb67e;fill-opacity:1;stroke-width:0.627528"
     d="m 121.79583,335.85691 c -5.45293,-5.41459 -11.53849,-12.81682 -11.36287,-12.99244 0.84308,-0.84308 89.07613,-25.34889 89.56093,-24.88104 0.5467,0.5276 7.63398,24.68918 7.63398,26.04513 0,0.38344 -4.25361,3.47708 -9.34442,4.9302 -5.09082,1.45313 -20.94468,6.0136 -35.12277,10.13439 -14.17809,4.12079 -28.36934,6.52006 -28.83536,6.52006 -0.46602,0 -7.07656,-4.34172 -12.52949,-9.7563 z"
     id="path15"
     transform="scale(3.1249996)"
     sodipodi:nodetypes="ssssssss" />
  <path
     style="fill:#ffb67e;fill-opacity:1;stroke-width:0.627528"
     d="m 218.07142,183.73053 c -5.95426,-26.85163 -10.99078,-49.52712 -11.19226,-50.38997 -0.25878,-1.10824 6.7127,3.13921 13.32487,9.78864 9.16384,9.21549 11.32687,12.68045 12.36163,16.67383 1.52191,5.87342 3.21282,17.00988 9.6553,46.52544 3.12641,14.32333 6.1715,27.87998 6.33475,28.61346 0.27399,1.23106 -1.12125,2.38693 -6.47239,3.35978 -3.18831,0.57964 -9.54764,2.78454 -10.24275,2.95523 -1.19265,0.29286 -3.55306,-11.45543 -13.76915,-57.52641 z"
     id="path16"
     transform="scale(3.1249996)"
     sodipodi:nodetypes="sssssssss" />
  <path
     style="fill:#ffb67e;fill-opacity:1;stroke-width:0.627528"
     d="m 134.33776,269.33107 c -0.13484,-0.43142 -1.92769,-4.654 -2.1476,-6.03456 -0.21991,-1.38056 -3.44291,-15.8179 -7.37828,-31.86692 -13.8321,-56.40937 -22.15503,-91.22182 -21.96105,-91.41581 0.10775,-0.10775 11.1786,5.68101 14.87571,11.78754 l 9.28811,9.86212 3.30897,8.51597 c 5.30034,13.64099 20.18783,92.77306 20.83556,93.06408 4.05973,1.82403 -9.1185,7.5791 -10.79577,7.5791 -0.35967,0 -5.8908,-1.06009 -6.02565,-1.49152 z"
     id="path17"
     transform="scale(3.1249996)"
     sodipodi:nodetypes="ssssscssss" />
  <path
     style="fill:#ffb67e;fill-opacity:1;stroke-width:0.627528"
     d="m 540.86284,336.43561 c -15.02358,-1.8845 -31.17605,-8.01764 -42.18831,-18.34574 -10.90912,-10.23137 -19.99388,-19.30593 -6.05181,-12.43438 16.28919,8.19129 41.14917,10.40978 59.43101,4.49502 11.94769,-3.86546 22.2032,-9.71648 31.90203,-19.04324 6.5397,-6.28882 7.92275,-8.0068 7.28278,-10.55665 -0.20142,-0.80251 -3.03145,-4.07309 -5.80282,-7.75409 -2.77137,-3.681 -19.6001,-16.55661 -11.29234,-16.34019 15.16608,0.39509 9.92354,8.694 11.16827,9.88342 4.01096,3.83272 10.37913,11.8517 12.64108,16.82133 2.92579,6.42813 5.56836,11.21501 10.36917,17.48994 2.1827,2.85291 4.87452,6.59587 4.87452,6.88631 0,0.29043 -3.08961,3.879 -6.10958,6.78626 -11.19684,10.77892 -26.26893,18.0408 -41.01394,20.87071 -6.36485,1.22158 -19.12122,2.00506 -25.21006,1.2413 z"
     id="path18"
     transform="scale(3.1249996)"
     sodipodi:nodetypes="sssssssssssssss" />
  <path
     style="fill:#ffb67e;fill-opacity:1;stroke-width:0.627528"
     d="m 521.89319,266.52991 c -1.17464,-0.74748 65.39745,-71.82163 69.47821,-72.86593 l 5.12217,-1.31081 0.49995,5.66789 c 0.70681,8.01304 -4.09996,33.88978 -4.80734,37.83385 -0.68864,3.83957 -0.41912,6.70902 -7.5398,14.23427 -4.00062,4.22791 -7.87783,8.56211 -8.15768,8.56211 -0.27985,0 -5.88726,-4.49291 -7.87757,-7.08146 -2.10159,-2.73327 -2.47849,-3.91077 -3.23653,-4.02064 -1.68791,-0.24465 -1.47444,1.14085 -4.81363,5.6725 -1.46693,1.99079 -4.41123,5.31619 -6.00815,6.62588 -3.85525,3.16183 -14.62261,7.32672 -18.8241,8.10187 -3.95083,0.7289 -12.79662,-0.75842 -13.83553,-1.41953 z"
     id="path19"
     transform="scale(3.1249996)"
     sodipodi:nodetypes="sscssssssssss" />
  <path
     style="fill:#ffb67e;fill-opacity:1;stroke-width:0.627528"
     d="m 489.6062,234.13637 c -1.00013,-5.91052 0.0465,-18.58553 1.69479,-25.03034 3.54956,-13.87862 15.00195,-24.2957 28.15505,-27.62076 4.24861,-1.07404 16.54612,-2.5618 18.57883,0.46095 l 2.76244,0.64289 -4.20683,5.32271 c -3.40943,4.3138 -34.9061,43.22706 -39.01888,48.49412 -1.54858,1.98321 -4.50821,5.46198 -4.74042,5.46198 -0.23222,0 -2.80157,-5.22929 -3.22498,-7.73155 z"
     id="path20"
     transform="scale(3.1249996)"
     sodipodi:nodetypes="sssscssss" />
  <path
     style="fill:#ffb67e;fill-opacity:1;stroke-width:0.627528"
     d="m 651.00611,279.42868 c -7.75254,-3.87399 -13.84576,-14.18918 -15.2602,-23.38919 -0.57138,-3.71648 -0.78429,-6.48998 0.86407,-17.67141 1.04305,-7.07537 2.43043,-16.86519 3.27404,-21.86972 0.84361,-5.00454 1.83473,-11.05854 2.12609,-12.95681 0.38066,-2.4801 2.50775,-4.19625 3.16975,-4.10331 0.50669,0.0711 13.0864,2.23243 28.06949,5.18481 14.98309,2.95238 29.12297,6.73568 30.77507,5.97544 1.92623,-0.88639 1.86612,0.78144 2.71784,-0.57428 0.51503,-0.81982 2.68485,-4.96374 3.95812,-10.48599 1.27327,-5.52224 2.95355,-14.46068 4.11403,-19.60812 l 2.25213,-9.98955 12.31182,9.48472 c 7.24041,5.57783 10.34308,12.09793 10.34308,12.9422 0,2.09304 -10.16428,41.01143 -10.65257,40.96721 -0.0494,-0.004 -16.00409,-1.91666 -33.41156,-5.35694 -17.40747,-3.44029 -24.75506,-4.89996 -29.50852,-5.27149 -0.18113,-0.0142 0.32616,4.43399 -0.67027,10.94282 -0.99644,6.50884 -1.09986,14.96835 -1.60483,17.72947 -1.76945,9.67514 -4.53765,26.00155 -4.31764,28.76774 0.12215,1.5358 -2.79127,1.98062 -2.99752,1.98062 -0.20622,0 -3.47774,-1.6615 -5.55242,-2.69822 z"
     id="path21"
     transform="scale(3.1249996)"
     sodipodi:nodetypes="ssssssssssscsscsssssss" />
  <path
     style="fill:#ffb67e;fill-opacity:1;stroke-width:0.627528"
     d="m 684.73444,352.70511 c -7.42051,-1.52709 -16.0075,-4.06291 -18.59605,-4.7709 -6.32371,-1.72958 -16.26671,-6.72826 -21.42,-10.64144 -5.13186,-3.89691 -20.91489,-19.25881 -19.17372,-18.63948 11.73327,4.1735 23.99063,7.92508 36.37939,10.38062 7.9264,1.57108 14.07486,2.294 14.63719,2.294 2.27418,0 2.12334,-0.68541 6.70687,-20.25828 l 5.12566,-21.88796 12.01194,11.24746 c 8.03415,7.52283 10.82444,11.03757 10.82444,12.34626 0,2.18273 -9.64532,40.95076 -10.28668,41.55565 -0.27208,0.25661 -8.78852,-0.0988 -16.20904,-1.62593 z"
     id="path22"
     transform="scale(3.1249996)"
     sodipodi:nodetypes="ssssssscssss" />
  <path
     style="fill:#5ec6c7;fill-opacity:1;stroke-width:0.627528"
     d="m 661.75183,154.60406 c -5.33661,-1.02197 -9.77234,-1.92753 -9.85718,-2.01237 -0.24341,-0.24342 9.84953,-60.256615 10.19137,-60.598459 0.37537,-0.375366 7.99777,7.101348 14.85911,14.575099 l 5.0827,5.53636 -1.33,8.26925 c -0.73149,4.5481 -2.16379,13.21104 -3.18287,19.251 -1.01909,6.03995 -2.04027,12.32308 -2.2693,13.96249 -0.50769,3.63427 -0.0176,3.59735 -13.49383,1.01663 z"
     id="path23"
     transform="scale(3.1249996)" />
  <path
     style="fill:#5ec6c7;fill-opacity:1;stroke-width:0.443729"
     d="m 365.89732,264.97123 c -1.576,-0.45553 -4.36513,-4.67452 -5.33038,-10.31929 -0.69115,-4.04185 1.42259,-16.98676 2.40068,-20.51653 2.23627,-8.07034 8.96908,-15.08419 16.02397,-18.54838 7.18533,-3.52824 24.65934,-5.11283 26.44543,-2.30177 1.8429,2.90048 3.91563,15.78715 2.42246,21.43635 -1.09299,4.13519 -7.25182,10.31687 -9.68755,13.90248 -4.13214,6.08286 -11.14324,13.64829 -17.2887,15.0969 -3.13028,0.73787 -12.7679,1.89135 -14.98591,1.25024 z"
     id="path24"
     transform="scale(3.1249996)"
     sodipodi:nodetypes="sssssssss" />
  <path
     style="fill:#ffb67e;fill-opacity:1;stroke-width:0.443729"
     d="m 455.67371,156.26662 c 0,-6.99613 -0.0241,-17.93514 0.16242,-17.93514 0.18656,0 6.92879,5.36327 9.61878,8.85022 l 6.00922,7.78956 -2.49957,3.66726 c -1.07983,1.58427 -3.99483,4.69175 -5.82237,7.13226 -1.82753,2.44051 -6.14045,7.26053 -6.23533,7.36222 -0.0949,0.10169 -1.23315,-9.87025 -1.23315,-16.86638 z"
     id="path25"
     transform="scale(3.1249996)"
     sodipodi:nodetypes="ssscssss" />
  <path
     style="fill:#ffb67e;fill-opacity:1;stroke-width:0.443729"
     d="m 671.94323,156.48477 c -2.25681,-0.2268 -19.59903,-3.57406 -20.07151,-3.86606 -0.57474,-0.35522 9.27903,-58.359998 10.27077,-60.544668 0.35783,-0.788268 2.8368,0.744147 9.53669,7.541324 4.14863,4.208874 8.13671,8.558784 9.06032,10.012464 l 1.56297,2.45997 -3.61184,20.75432 c -1.94573,11.18054 -3.44977,21.38353 -3.58726,22.0567 -0.29262,1.43269 -1.31039,1.77183 -3.16014,1.58595 z"
     id="path26"
     transform="scale(3.1249996)"
     sodipodi:nodetypes="ssssscsss" />
  <path
     style="fill:#2e2e2e;fill-opacity:1;stroke-width:0.221865"
     d="m 327.08006,229.07241 c -0.53073,-23.9768 4.95993,-37.02151 22.37696,-47.01198 3.86283,-2.21573 10.04511,-4.87796 22.77674,-4.61276 9.60064,-0.16639 18.93079,4.06151 26.23664,10.13542 14.24663,11.8443 15.56332,23.63264 16.32194,31.25436 2.50125,25.12966 -11.52273,40.38928 -18.7161,46.38136 -29.0278,24.18016 -68.1823,0.62248 -68.99618,-36.1464 z m 30.34379,36.71856 c 0,-0.0625 -0.36684,-1.36985 -0.92322,-3.2292 -1.16069,-3.87883 -1.54564,-8.66819 -1.91935,-13.18462 -0.22159,-2.67799 -0.20345,-3.56173 0.1236,-7.05071 1.14184,-12.18087 4.47215,-19.93798 11.40581,-26.70693 4.48805,-4.38144 8.59922,-7.21215 14.78397,-9.13647 3.59124,-1.11738 6.7065,-1.5452 10.76218,-1.81286 11.77233,-0.77693 12.24434,2.16919 13.60787,0.80566 0.42627,-0.42627 -2.90722,-5.86314 -5.62884,-8.91138 -5.57308,-6.24191 -9.86253,-9.78588 -17.19781,-11.88129 -2.5293,-0.72252 -22.2119,-5.97409 -37.27175,7.26292 -6.29336,5.53161 -10.65035,13.72112 -11.82201,23.68526 -0.4075,3.46546 -0.84075,12.64385 -0.24521,15.90643 1.47856,8.10016 3.66579,14.47538 7.43896,20.21713 1.77498,2.70103 3.02833,3.57832 5.37772,5.97415 3.1099,3.17138 5.97826,5.6852 9.61597,7.43262 1.52236,0.73129 1.89211,0.85426 1.89211,0.62929 z m 48.0514,-38.938 c 0.14579,-5.95702 -1.79011,-12.3274 -3.25223,-13.17922 -2.7907,-1.62584 -13.14107,-1.70276 -19.06459,0.27905 -6.98048,2.33542 -12.82392,8.16896 -16.04042,14.3967 -2.74738,5.31943 -4.62552,12.20934 -4.35556,19.20294 0.13152,3.40713 1.04663,9.76444 1.7106,11.93573 0.65593,2.14503 0.33806,4.73814 3.73772,5.09808 20.87136,0.0445 36.81156,-19.22736 37.26448,-37.73328 z"
     id="path5"
     sodipodi:nodetypes="sssssssssssssssssssssssssssssscs"
     transform="scale(3.1249996)" />
  <path
     style="fill:#2e2e2e;fill-opacity:1;stroke-width:0.221865"
     d="m 490.25835,247.12222 c -1.46746,-0.61891 -2.53653,-2.10319 -3.66736,-5.99447 -1.85684,-6.38956 -2.35654,-12.5641 -1.63208,-21.51983 0.7416,-9.16781 1.84186,-13.73052 4.75239,-19.70793 4.13451,-8.49112 10.4495,-15.35091 18.32098,-19.41538 4.26347,-2.20146 7.6256,-3.40908 14.02168,-4.47015 8.10795,-1.34505 21.65794,0.39741 23.31362,2.9243 0.84087,1.28333 0.83253,3.17882 -0.15062,5.32632 -0.31862,0.69595 -2.28632,3.16719 -4.57963,5.91366 -4.06082,4.86324 -31.33336,38.8236 -38.68754,47.9101 -4.93166,6.09333 -6.26906,7.57777 -7.56353,8.3366 -1.04221,0.61096 -3.30132,1.0454 -4.12791,0.69678 z m 8.95858,-14.60813 c 7.93724,-9.82704 30.19941,-37.11163 36.09875,-44.24275 2.46447,-2.97905 4.48086,-5.49003 4.48086,-5.57996 0,-0.3955 -5.2633,-1.2458 -8.98552,-1.45163 -2.78211,-0.15385 -7.58884,0.28525 -11.2175,1.02473 -8.81716,1.79682 -17.3974,7.81691 -22.44873,15.75051 -1.89605,2.97794 -3.7869,7.26388 -4.7958,10.87052 -1.57231,5.6207 -2.49751,17.62535 -1.79586,23.3016 0.51367,4.15554 1.6673,8.36307 2.23483,8.15093 0.0864,-0.0323 2.9794,-3.55306 6.42897,-7.82395 z"
     id="path6"
     transform="scale(3.1249996)"
     sodipodi:nodetypes="ssssssssssssssssssssss" />
  <path
     style="fill:#2e2e2e;fill-opacity:1;stroke-width:0.887458"
     d="m 381.08071,409.08292 c -2.56587,-1.12035 -22.28447,-21.00215 -24.95778,-25.08213 -0.69566,-1.06171 -2.07488,-6.0187 -2.37742,-9.2586 l -2.31792,-20.28466 c -1.81234,-18.99268 -2.79726,-17.34778 -5.31127,-19.26902 -0.95328,-0.72851 -2.39335,-1.74808 -2.53548,-1.56508 -0.14218,0.18306 -0.60919,1.22555 -1.15749,4.29884 -2.0674,11.58807 -4.55774,18.03531 -12.05889,23.44265 -3.89291,2.80627 -10.95157,6.11853 -18.34698,6.10446 -7.23124,-0.0137 -11.09201,0.004 -15.41185,-2.00745 -2.77005,-1.28973 -6.71988,-3.27106 -8.88544,-5.2672 -5.14585,-5.25896 -4.13695,-2.97425 -6.89187,0.26464 -2.07028,2.05061 -6.21892,3.56068 -22.40474,7.48291 -10.4942,2.54301 -22.57501,4.17741 -24.36156,4.17214 -4.11762,-0.0121 -8.24791,-2.90841 -21.03512,-16.07493 -7.43197,-7.65243 -9.96622,-10.05186 -10.8424,-13.12661 -0.61352,-2.15299 -1.17425,-4.02063 -1.46211,-4.36637 -0.28787,-0.34575 -11.37516,2.66408 -29.06767,7.76883 -17.69251,5.10474 -34.65795,9.01619 -36.51264,9.01619 -4.31915,0 -9.21041,-0.0782 -22.99069,-14.83547 L 100.37654,327.8864 66.35816,252.73145 C 34.491892,182.33104 29.024321,170.31531 30.411585,169.67177 c 0.311537,-0.14452 0.281582,-4.28926 1.013735,-5.75357 1.126,-2.252 6.485613,-5.74627 31.376123,-18.30433 16.18442,-8.16555 30.741921,-14.96301 32.890151,-15.53757 2.184387,-0.58424 8.856906,-1.46374 10.316546,-1.09825 3.11004,0.77874 27.52441,25.64804 29.48633,29.81357 0.70702,1.50116 4.81621,17.99351 10.42789,40.9709 8.22178,33.66467 0.2092,1.77364 12.42274,50.9433 l 6.18696,-2.36048 c 5.06204,-1.9313 7.9247,-3.22498 7.92825,-3.64427 0.004,-0.41928 -4.48567,-20.5592 -12.11492,-46.74148 -9.32679,-32.00792 -13.90613,-49.74841 -13.97747,-52.8664 -0.17871,-7.81022 1.77423,-9.64565 29.58067,-16.81 15.06033,-3.88031 24.89658,-6.22716 26.407,-6.22944 1.51042,-0.002 4.69349,-0.54566 8.32545,1.22627 3.63197,1.77192 13.1853,11.55383 13.1853,11.55383 1.21238,1.04957 13.92317,14.73469 14.91983,17.14629 0.80689,1.95241 4.8252,19.7018 9.23226,39.21108 l 7.73654,34.24834 13.64498,12.87437 c 7.56351,7.13636 9.30555,8.87606 9.83556,9.02937 0.33141,0.0959 0.0905,-0.48616 -0.0817,-1.47182 -1.54927,-8.86918 -1.01477,-10.26959 -1.40871,-25.28159 -0.41335,-15.75155 0.54833,-19.04129 2.81441,-26.50509 4.99926,-16.46599 12.31959,-29.60766 23.37747,-40.66555 13.24503,-13.24502 30.0365,-21.7203 49.16328,-25.31851 11.5548,-2.17375 30.12607,-1.26748 40.71162,1.89243 9.24678,2.76027 19.24911,6.82841 26.35789,11.37584 2.78839,1.78371 4.21119,3.18061 4.84235,3.18061 0.63116,0 2.52563,-1.81749 4.93563,-4.76457 6.14947,-7.51987 9.22473,-9.00218 17.54749,-9.48397 3.85931,-0.22342 10.04937,0.2279 11.75774,0.79171 1.67123,0.55156 5.32074,3.18929 8.50167,6.2708 l 4.37553,4.23877 c 10.7894,-5.14271 17.36563,-9.94112 28.99282,-13.03312 13.26069,-2.9375 18.03092,-3.77286 30.13358,-3.67533 6.25172,0.0504 10.74935,0.88547 12.87804,1.15983 9.44127,1.21684 18.76289,4.39213 27.71641,8.15339 2.85636,1.44958 4.11742,1.00769 12.61177,1.22803 10.48633,0.27201 9.72276,2.58101 10.61415,-6.6633 0.57917,-6.00639 1.44696,-11.1003 3.86074,-30.095625 0.79148,-6.228545 1.60858,-11.212264 1.77158,-12.690475 0.45302,-4.108324 1.72072,-10.819503 5.87725,-13.475156 1.85979,-0.770351 6.09837,-1.095916 10.41994,-0.728986 6.8669,0.583047 46.13619,6.654476 48.40437,7.344018 0.75357,0.229089 7.18333,6.184208 14.64307,13.624806 17.83367,17.787928 13.54124,13.281348 10.29778,40.821808 -1.18335,10.04799 -2.78539,16.7421 -2.43032,17.05346 0.35508,0.31135 5.74131,1.47269 13.913,3.33031 8.22566,1.86988 16.68045,3.87003 18.21543,4.59843 1.53498,0.7284 8.50918,7.9114 15.40233,14.90762 12.39264,12.57796 11.78781,13.82429 11.78781,17.78887 0,3.55578 -6.64017,38.6448 -9.0609,46.09474 -1.32136,4.06659 -4.80485,5.37936 -9.22394,5.3508 -2.00861,-0.013 -16.20401,-1.55221 -30.35897,-4.40349 -14.15496,-2.85128 -23.37326,-4.29892 -24.02966,-4.15854 -0.7817,0.16716 -3.23086,11.5989 -6.7272,39.06446 4.46613,2.71695 17.25121,2.57912 23.82359,6.52017 1.57052,0.94175 4.69143,3.23844 14.58988,13.51473 15.09485,15.67102 14.64146,14.8113 13.31985,24.88781 -0.2309,1.76052 -5.70456,37.8707 -11.69008,44.82978 -2.5412,2.95453 -10.26225,2.34855 -23.99605,-0.30749 -31.31932,-6.05697 -32.8908,-4.68509 -61.58724,-31.06907 l -9.51485,-8.74811 -2.461,2.16231 c -8.96094,7.87336 -21.44481,16.05631 -34.60205,19.64815 -6.42499,1.75398 -11.23962,2.6035 -23.33373,2.6035 -12.20655,0 -18.09933,-0.89378 -24.64048,-2.47964 -7.92596,-1.9216 -12.60674,-4.40655 -18.47014,-6.93659 -8.06003,-4.07849 -11.59502,-4.73898 -16.98491,-10.42985 -0.87457,-0.92339 -2.73953,-3.34293 -3.83346,4.36634 -3.38964,23.88776 -21.21435,51.20948 -41.00366,64.5454 -12.44274,8.3851 -25.33453,10.72577 -45.09203,12.80061 -12.85959,1.35044 -19.24607,2.02222 -21.23799,0.0204 z m 21.4182,-10.25548 c 11.11159,-1.11831 20.82118,-3.41063 27.60888,-6.51815 15.59925,-7.14157 30.0027,-21.52673 38.44725,-38.39841 8.02004,-16.02355 10.67341,-27.20539 10.67101,-44.96976 l -10e-4,-10.75512 -6.25461,-6.19691 c -3.44004,-3.4083 -7.93214,-8.68712 -9.98246,-11.73071 -2.05031,-3.0436 -4.02736,-5.54646 -4.39343,-5.56192 -0.36608,-0.0155 -0.6691,1.46948 -0.67339,3.29987 -0.004,1.83038 -0.30249,8.87991 -0.89599,15.64697 -1.2456,14.20234 -2.07077,22.48199 -8.79575,36.45627 -11.74373,24.40311 -33.48541,41.47706 -57.66428,45.47128 -2.92861,0.48379 -9.93381,1.33154 -13.83862,1.66783 -11.85772,1.0212 -11.84117,0.46515 -0.36322,12.21412 11.52508,11.79719 9.45241,11.05376 26.13606,9.37464 z m 37.92549,-69.27862 c 5.79412,-12.15088 8.49891,-24.11502 11.15699,-49.86231 1.1513,-11.15201 1.76698,-13.82307 2.83986,-14.89595 2.06827,-2.06827 5.95173,-1.90415 10.68457,5.30957 4.80803,7.32832 10.51464,15.44659 18.10264,21.4596 14.17413,11.23211 29.87461,15.39459 44.69802,15.81049 12.94528,0.36321 19.77572,-1.29585 31.76723,-6.89786 12.31244,-5.75194 24.64428,-15.97803 23.42811,-19.14733 -0.23996,-0.62533 -3.7741,-6.49586 -9.4578,-14.11505 -9.28122,-12.4418 -7.00782,-11.78217 -10.42047,-8.93689 -1.11064,0.926 -6.00623,6.85759 -10.67316,9.843 -8.20415,5.24812 -17.21424,5.85726 -26.80196,5.3034 -8.07167,-0.46628 -12.94763,-2.98615 -12.94763,-5.32891 0,-1.34732 8.06022,-10.10027 46.83315,-50.40223 30.03232,-31.21666 34.73358,-33.93123 39.7034,-31.56092 1.8357,0.87552 3.85016,3.67332 4.0598,5.85082 0.15487,1.60865 -2.07115,15.93641 -3.37078,30.37971 -0.10327,1.14771 -1.87066,25.98398 -1.03499,34.65002 2.91787,30.25891 18.91988,53.74795 44.64052,61.90603 7.19025,2.28061 29.70818,8.05549 30.38634,7.37733 0.58236,-0.58236 7.37028,-31.23337 7.37028,-33.28101 0,-1.52967 -0.59096,-1.05639 -10.86866,-3.21249 -18.97645,-3.98097 -22.61819,-5.55156 -28.69475,-11.17738 -6.05335,-5.60433 -10.05048,-13.16509 -11.49482,-21.0687 -0.80993,-4.432 -1.31166,-9.17273 2.26591,-32.03332 2.23934,-14.30941 5.25837,-30.09906 5.52062,-30.98299 0.98241,-3.31137 5.60256,-1.23663 16.79116,1.12168 16.38203,3.45298 47.26012,8.75485 47.61972,8.39526 0.49372,-0.49373 6.50023,-32.55932 6.18852,-32.87103 -1.34341,-1.3435 -63.14838,-11.53318 -64.21791,-13.24734 -0.64496,-1.03369 0.99,-12.60179 4.58931,-35.06644 2.76051,-17.23113 5.56908,-31.361478 5.37701,-31.55354 -0.19206,-0.192062 -5.07854,-1.255167 -12.08107,-2.209679 -21.07328,-2.87249 -27.50215,-3.633237 -27.84088,-3.294498 -0.1774,0.17739 -1.94316,13.290596 -3.92392,29.140457 -1.98078,15.84986 -3.83261,29.91948 -4.11519,31.26582 -0.80314,3.82648 -3.08418,4.49591 -12.9389,3.79724 l -8.74532,-0.62001 -0.53547,2.67732 c -0.79111,3.95558 -2.7057,4.12406 -7.87346,0.69286 -7.12379,-4.72993 -12.60096,-7.2525 -22.20654,-10.22749 -34.09468,-10.55961 -70.10275,-0.0952 -89.09486,25.89198 -2.92972,4.00879 -6.31832,8.48678 -7.53022,9.95109 -2.11708,2.55802 -2.26645,2.60035 -3.81111,1.0797 -1.42196,-1.39984 -1.63938,-3.57822 -1.88227,-18.85848 l -0.2746,-17.27583 h -3.4971 c -4.03311,0 -4.13749,0.0896 -13.21237,11.33448 -3.63505,4.50428 -7.04952,8.18961 -7.5877,8.18961 -0.53818,0 -3.35472,-1.72622 -6.25897,-3.83603 -18.13274,-13.17269 -32.73593,-18.51856 -50.98455,-18.66421 -12.13567,-0.0969 -20.89377,1.67085 -31.9485,6.44839 -18.50479,7.99725 -31.10829,20.03957 -39.59631,37.83322 -7.17715,15.04566 -9.26548,28.87093 -7.09894,46.99665 2.15607,18.0381 7.10396,30.50657 16.14142,44.47569 5.71908,8.83993 11.87783,12.563 19.44639,18.29169 12.85774,9.73213 25.70388,12.22892 41.97829,13.94526 17.32077,1.82671 32.08914,-1.21702 41.41227,-9.06191 3.27707,-2.75746 5.42569,-1.52098 6.71977,0.89705 1.93873,3.62252 -3.1582,16.92586 -9.95493,24.29945 -6.76654,7.34083 -14.97338,11.23586 -31.21844,12.90453 -5.36912,0.55151 -10.68874,1.22463 -11.05748,1.57223 -0.58203,0.54865 0.52666,17.23662 2.16003,30.1071 l 1.85977,2.68735 7.47227,-0.61799 c 8.30537,-0.68688 46.08029,-3.91769 64.03866,-41.57826 z m -185.04768,28.0758 c 9.12049,-2.20806 16.91326,-4.34521 17.31727,-4.74923 0.40401,-0.404 -0.48348,-6.27862 -1.97219,-13.05471 -2.13476,-9.71663 -3.28627,-13.1271 -5.44913,-16.13884 -10.89818,-15.17542 -6.56571,-36.42064 8.90479,-43.66664 2.46645,-1.15523 4.46872,-2.53134 4.44948,-3.05804 -0.0192,-0.52668 -0.76046,-4.42773 -1.64715,-8.66897 -1.36688,-6.53811 -2.16162,-8.36091 -5.22363,-11.98069 -5.20485,-6.15296 -16.92179,-17.56712 -17.47017,-17.01874 -0.25657,0.25657 1.27712,9.81952 3.4082,21.25101 3.13772,16.83137 3.66151,21.01366 2.75392,21.98925 -0.61641,0.6626 -4.82896,1.96532 -9.36123,2.89492 -4.53227,0.92962 -8.37527,1.82499 -8.54001,1.98972 -0.16473,0.16473 1.76769,9.7604 4.29426,21.32372 3.33643,15.26974 4.32701,21.29095 3.61914,21.99882 -0.53604,0.53604 -8.80703,2.86993 -18.37997,5.18642 -9.57294,2.31648 -17.66474,4.47119 -17.98178,4.78823 -0.31705,0.31704 3.98976,5.15564 9.57068,10.75244 8.1221,8.1452 10.64381,10.17598 12.63597,10.17598 1.36886,0 9.95106,-1.8066 19.07155,-4.01465 z m 62.7771,-2.96728 c 5.28206,-2.40785 9.11904,-6.01799 11.80245,-11.1047 3.97184,-7.52907 2.98348,-22.96725 0.28865,-28.02244 -1.01877,-1.91109 -22.72266,-29.70143 -19.60511,-17.10486 6.21214,25.10039 -10.10073,38.1069 -27.91563,36.29098 -2.64203,-0.26931 -6.27482,-1.33393 -6.4931,-1.11565 -0.62442,0.62441 13.61845,15.13074 17.49066,17.81417 1.91643,1.3281 5.00279,2.95631 6.85857,3.61825 4.87579,1.73916 13.33057,1.55838 17.57346,-0.37575 z m 381.54986,-1.61393 c 0.77651,-1.25642 10.01299,-38.35582 10.01299,-40.512 0,-2.57717 -20.35537,-22.3083 -21.04283,-20.42324 -0.25671,0.70391 -2.22054,9.04487 -4.68817,19.77781 -2.46762,10.73295 -4.76386,19.88011 -5.21078,20.32702 -1.7962,1.79621 -34.29268,-5.07307 -44.51852,-9.56565 -3.73984,-1.64304 -6.81565,-3.03156 -7.21322,-3.03156 -1.37842,0 13.46119,13.74714 18.75957,17.54197 10.37411,7.43016 16.20103,9.10193 37.20404,13.58702 15.71231,3.35528 15.99382,3.43628 16.69692,2.29863 z M 171.0476,334.8187 c 25.90404,-7.44548 34.82325,-10.34989 34.82468,-11.34013 0.003,-2.19985 -6.04928,-23.28404 -6.93954,-24.17429 -0.50925,-0.50925 -14.38373,3.08174 -36.20407,9.37032 -19.45811,5.60778 -38.57325,11.07185 -42.47806,12.14235 -3.90482,1.07052 -7.4858,2.31372 -7.95773,2.7627 -0.53895,0.51273 2.92108,4.6062 9.30384,11.00712 7.50815,7.5295 10.74506,10.19734 12.39501,10.21584 1.22822,0.0138 17.90336,-4.47899 37.05587,-9.98391 z m 402.82545,-2.8462 c 8.86495,-2.84893 16.63881,-6.66373 24.78642,-12.68521 5.3176,-3.92996 12.73366,-10.95013 12.73366,-12.16562 0,-0.26663 -2.30064,-3.07228 -4.98111,-6.5905 -2.68047,-3.51821 -5.50662,-10.15208 -7.57671,-14.30978 -4.5426,-9.1237 -9.69541,-14.77321 -17.67304,-23.24148 l -5.67662,-6.35746 7.62456,-8.72847 c 4.26874,-4.88678 7.9376,-9.02697 7.93829,-9.39181 6.8e-4,-0.36483 1.19875,-10.19061 2.66237,-21.83505 1.46363,-11.64444 2.66113,-21.72819 2.66113,-22.40832 0,-5.39689 -11.30424,5.45571 -68.25916,65.53197 -3.13134,3.30294 -5.3913,6.30434 -5.02214,6.66978 0.36917,0.36543 3.76653,0.62278 7.5497,0.57189 11.0813,-0.14904 20.76848,-5.29312 28.50372,-15.13603 2.43203,-3.0947 4.94459,-5.62672 5.58348,-5.62672 0.63889,0 3.63951,2.7269 6.17152,6.02159 9.47342,12.32698 21.44184,28.7348 21.44184,29.3952 0,1.441 -4.72551,7.65254 -9.83012,12.09559 -10.72081,9.33138 -22.31211,15.55736 -35.78067,19.1931 -4.72103,1.2744 -9.44624,1.79141 -19.00361,1.72481 -14.44596,-0.10065 -21.97902,-1.93793 -34.24686,-7.68683 -4.20933,-1.97256 -6.47083,-3.00119 -6.70004,-2.77199 -0.70421,0.70421 13.25801,13.37564 19.15808,17.58584 7.13689,5.09278 14.96215,8.55918 25.01858,11.22492 7.14199,1.89319 9.63013,2.27048 21.93023,1.98101 12.00835,-0.2826 14.40127,-0.94415 20.9865,-3.06043 z m -343.00759,-1.54849 c 7.7038,-1.8679 12.24269,-3.13197 12.53086,-3.42015 0.28818,-0.28817 -0.1961,-7.67846 -2.29841,-17.33951 -4.45852,-20.48907 -4.92693,-23.82925 -3.57081,-25.46329 0.55158,-0.66461 4.58782,-2.15471 8.96939,-3.00577 4.38158,-0.85105 7.7625,-1.62203 7.8187,-2.1716 0.20556,-2.00985 0.62857,-5.24423 -2.47434,-21.56391 -2.31987,-12.20127 -2.8715,-15.26484 -3.78609,-15.26484 -0.68601,0 -4.58668,0.45683 -9.27925,1.47351 -7.10807,1.54003 -9.47892,1.90111 -10.46227,0.9156 -0.64919,-0.65061 -7.08652,-25.29446 -13.54128,-54.45856 -10.47125,-47.31146 -11.66706,-53.65063 -13.16662,-53.65063 -0.92436,0 -10.16526,2.01928 -21.14643,4.79285 l -19.96576,5.04286 0.54288,2.8938 c 0.29858,1.59159 6.91874,24.91429 14.71147,51.82821 7.79272,26.91393 14.16858,49.65104 14.16858,50.52693 0,0.87589 -0.39509,2.77416 -1.03076,3.30172 -2.16661,1.79812 -53.79419,21.53401 -55.17816,21.00293 -0.75826,-0.29097 -3.57523,-2.50854 -3.81551,-3.55293 -0.24027,-1.0444 -2.18334,-7.88924 -3.85959,-15.21077 -2.41967,-10.56869 -26.07131,-109.58267 -26.86937,-112.23902 -0.281475,-0.93687 -53.902315,25.22492 -53.902315,26.30143 0,0.48268 6.164385,14.48417 13.698632,31.11441 7.534247,16.63024 22.287135,49.20623 32.784196,72.39108 10.497057,23.18485 19.869507,41.62083 20.522107,42.03829 0.75474,0.48281 15.93244,-3.885 42.36137,-11.56509 22.85239,-6.64076 42.94971,-11.69912 44.35513,-11.69912 1.67534,0 4.12543,0.43763 4.97285,1.74678 0.7109,1.09823 2.68941,9.85891 5.46613,19.62095 2.77672,9.76204 5.47302,17.29868 5.68623,17.66476 0.58368,1.00218 0.63209,1.61672 15.75844,-2.05092 z m 142.7545,0.12314 c 13.85939,-1.23912 20.78711,-3.39441 26.18607,-8.14677 4.63442,-4.07938 9.31226,-10.73796 9.31226,-13.25535 0,-1.38848 -0.68424,-1.27045 -6.17126,1.06448 -12.32493,5.24473 -24.73805,6.89229 -39.87568,5.29259 -11.42904,-1.20778 -17.80909,-3.06893 -27.88231,-8.13365 -3.85721,-1.93937 -7.24252,-3.29672 -7.52291,-3.01633 -0.69364,0.69363 14.23521,15.03636 19.27032,18.51373 4.78378,3.3038 14.32415,8.55222 15.59028,8.57665 0.4881,0.009 5.48006,-0.39349 11.09323,-0.89535 z M 304.40279,318.4045 c 7.52811,-11.21097 1.36731,-32.46476 -17.99532,-34.5909 -14.82775,-1.62818 -26.23099,16.59099 -18.9581,32.49657 8.22379,17.98518 27.13991,16.70875 36.95342,2.09433 z m 352.94875,-43.51428 c 0.006,-3.29469 1.07389,-10.9823 2.05003,-17.08357 0.97613,-6.10128 2.33479,-16.78406 3.39736,-23.73951 1.09964,-7.19818 2.64727,-12.63044 3.18365,-12.60952 0.5183,0.0202 14.85273,2.55436 31.69226,5.90148 16.83952,3.34712 30.44462,6.01362 30.82772,5.65549 1.42249,-1.32978 10.68118,-41.12665 9.87942,-42.57088 -1.80373,-3.24907 -19.88655,-19.89937 -20.65692,-19.08069 -0.44392,0.47176 -1.50443,3.45119 -2.29658,6.9984 -4.87005,21.80765 -6.71984,33.78333 -7.82554,34.20761 -0.67471,0.25892 -16.10222,-2.88855 -32.11251,-6.06014 -16.01028,-3.17159 -29.51753,-6.02365 -30.44823,-6.12187 -1.53217,-0.16168 -1.40507,1.22099 -4.58094,19.70265 -4.53869,26.41253 -4.07446,36.39624 -0.60208,43.64549 2.94335,6.14482 6.26363,10.43918 11.97897,13.10997 4.37749,2.33038 5.43491,4.0051 5.51339,-1.95491 z M 146.20876,265.3724 c 2.479,-1.0163 3.7717,-2.09692 3.7717,-3.15293 0,-1.49722 -16.51305,-69.76217 -21.87852,-90.44578 l -2.40413,-9.26782 -9.72073,-10.03441 c -5.34639,-5.51892 -10.0564,-10.0344 -10.46667,-10.0344 -1.05669,0 -1.07725,-0.0907 13.87959,61.23463 7.44031,30.50638 13.99531,57.73644 14.56667,60.51126 l 1.03885,5.04511 3.72077,-1.1547 c 2.04642,-0.63508 5.41804,-1.85051 7.49247,-2.70096 z m 94.05766,-27.65176 c 6.65556,-1.32112 7.2721,-1.61854 6.90014,-3.32865 -7.55986,-34.7573 -16.7575,-75.84387 -17.29122,-77.2413 -1.08779,-2.84814 -19.70803,-22.00795 -20.5601,-21.15589 -0.96665,0.96665 21.57193,103.15023 22.75512,103.1653 0.4881,0.006 4.17632,-0.64154 8.19606,-1.43946 z m 229.64111,-83.13137 c 0.004,-0.25627 -2.08075,-4.10908 -6.21055,-7.20246 l -5.65593,-4.23651 -0.2083,12.93958 0.0417,14.00208 c 3.35192,-6.9094 7.89294,-11.67288 12.03308,-15.50269 z m 205.07625,0.51538 c 0,-1.18236 1.6497,-10.21811 3.313,-20.11126 1.6633,-9.89316 3.45458,-19.38827 3.66463,-21.0119 0.35504,-2.74444 0.1399,-3.41774 -9.53932,-13.46145 -5.72632,-5.941954 -9.90069,-8.68885 -10.25937,-8.341352 -0.86121,0.834393 -10.78642,59.473922 -10.17191,60.108352 0.70403,0.72685 14.63312,3.65076 21.15052,4.05698 0.52576,0.0328 1.84245,-0.057 1.84245,-1.23937 z"
     id="path4"
     sodipodi:nodetypes="csccsssssssssssssssscsssssssscscssszzssscsssssssssssssscsssssssssssssssssssssscsssssscssssssssssccssccssscsssssccssssssssssssssssssssssssssssssssssssscssssssscssssssssssssssssscssssssssssssssssssssssssssssssssssssssssssscssssssssssssscssssssssssssssssssssssssssssssssscsssssssssssssssssssssssssscssssscsssssssssssssscssscsssscssscsscscsccccssssssss"
     transform="scale(3.1249996)" />
</svg>
